<svg width="42" height="31" viewBox="0 0 42 31" fill="none" xmlns="http://www.w3.org/2000/svg">
<path d="M24.9125 29.347C24.3875 28.822 24.1355 28.1876 24.1565 27.4438C24.1775 26.7001 24.4514 26.0657 24.9781 25.5407L32.3938 18.1251H3.12501C2.38126 18.1251 1.75738 17.8731 1.25338 17.3691C0.749385 16.8651 0.498259 16.2421 0.500009 15.5001C0.500009 14.7563 0.752009 14.1325 1.25601 13.6285C1.76001 13.1245 2.38301 12.8733 3.12501 12.8751H32.3938L24.9125 5.39385C24.3875 4.86885 24.125 4.24497 24.125 3.52222C24.125 2.79947 24.3875 2.17647 24.9125 1.65322C25.4375 1.12822 26.0614 0.865723 26.7841 0.865723C27.5069 0.865723 28.1299 1.12822 28.6531 1.65322L40.6625 13.6626C40.925 13.9251 41.1114 14.2095 41.2216 14.5157C41.3319 14.822 41.3861 15.1501 41.3844 15.5001C41.3844 15.8501 41.3293 16.1782 41.219 16.4845C41.1088 16.7907 40.9233 17.0751 40.6625 17.3376L28.5875 29.4126C28.1063 29.8938 27.5051 30.1345 26.7841 30.1345C26.0631 30.1345 25.4393 29.872 24.9125 29.347Z" fill="url(#paint0_linear_74_20)"/>
<defs>
<linearGradient id="paint0_linear_74_20" x1="51.3885" y1="7.64135" x2="22.762" y2="36.3465" gradientUnits="userSpaceOnUse">
<stop stop-color="#00FFFF"/>
<stop offset="0.14" stop-color="#00FAFF"/>
<stop offset="0.31" stop-color="#00ECFF"/>
<stop offset="0.48" stop-color="#00D5FF"/>
<stop offset="0.66" stop-color="#00B6FF"/>
<stop offset="0.84" stop-color="#008DFF"/>
<stop offset="1" stop-color="#0065FF"/>
</linearGradient>
</defs>
</svg>
