<svg width="42" height="31" viewBox="0 0 42 31" fill="none" xmlns="http://www.w3.org/2000/svg">
<path d="M17.0875 29.347C17.6125 28.822 17.8645 28.1876 17.8435 27.4438C17.8225 26.7001 17.5486 26.0657 17.0219 25.5407L9.60624 18.1251H38.875C39.6187 18.1251 40.2426 17.8731 40.7466 17.3691C41.2506 16.8651 41.5017 16.2421 41.5 15.5001C41.5 14.7563 41.248 14.1325 40.744 13.6285C40.24 13.1245 39.617 12.8733 38.875 12.8751H9.60624L17.0875 5.39385C17.6125 4.86885 17.875 4.24497 17.875 3.52222C17.875 2.79947 17.6125 2.17647 17.0875 1.65322C16.5625 1.12822 15.9386 0.865723 15.2159 0.865723C14.4931 0.865723 13.8701 1.12822 13.3469 1.65322L1.33749 13.6626C1.07499 13.9251 0.888615 14.2095 0.778362 14.5157C0.668114 14.822 0.613861 15.1501 0.615612 15.5001C0.615612 15.8501 0.670742 16.1782 0.780991 16.4845C0.891243 16.7907 1.07674 17.0751 1.33749 17.3376L13.4125 29.4126C13.8937 29.8938 14.4949 30.1345 15.2159 30.1345C15.9369 30.1345 16.5607 29.872 17.0875 29.347Z" fill="url(#paint0_linear_74_23)"/>
<defs>
<linearGradient id="paint0_linear_74_23" x1="-9.38851" y1="7.64135" x2="19.238" y2="36.3465" gradientUnits="userSpaceOnUse">
<stop stop-color="#00FFFF"/>
<stop offset="0.14" stop-color="#00FAFF"/>
<stop offset="0.31" stop-color="#00ECFF"/>
<stop offset="0.48" stop-color="#00D5FF"/>
<stop offset="0.66" stop-color="#00B6FF"/>
<stop offset="0.84" stop-color="#008DFF"/>
<stop offset="1" stop-color="#0065FF"/>
</linearGradient>
</defs>
</svg>
