<svg width="23" height="23" viewBox="0 0 23 23" fill="none" xmlns="http://www.w3.org/2000/svg">
<path d="M20.1347 16.7685C20.1347 17.0755 20.0663 17.391 19.9211 17.698C19.7759 18.0051 19.588 18.295 19.3403 18.5679C18.9218 19.0284 18.4606 19.361 17.9396 19.5743C17.4271 19.7875 16.872 19.8983 16.2741 19.8983C15.4029 19.8983 14.4719 19.6936 13.4897 19.2758C12.5075 18.8579 11.5252 18.295 10.5516 17.5872C9.56934 16.8708 8.63837 16.0777 7.75009 15.1993C6.87036 14.3123 6.07604 13.3827 5.36713 12.4105C4.66677 11.4383 4.10305 10.4661 3.69308 9.50237C3.28311 8.53015 3.07812 7.60057 3.07812 6.71363C3.07812 6.13371 3.18062 5.57937 3.3856 5.06767C3.59059 4.54745 3.91515 4.06987 4.36783 3.64345C4.91446 3.10617 5.51233 2.8418 6.14437 2.8418C6.38352 2.8418 6.62267 2.89297 6.8362 2.99531C7.05827 3.09764 7.25471 3.25115 7.40845 3.47289L9.38998 6.26163C9.54372 6.47484 9.65475 6.67099 9.73162 6.85861C9.80849 7.0377 9.8512 7.2168 9.8512 7.37883C9.8512 7.58351 9.79141 7.78819 9.67184 7.98434C9.5608 8.18049 9.39852 8.38517 9.19354 8.58985L8.54441 9.26358C8.45046 9.35739 8.40776 9.46826 8.40776 9.60471C8.40776 9.67294 8.4163 9.73263 8.43338 9.80086C8.459 9.86909 8.48463 9.92026 8.50171 9.97143C8.65545 10.2529 8.92022 10.6196 9.29603 11.063C9.68038 11.5065 10.0903 11.9585 10.5345 12.4105C10.9957 12.8625 11.4398 13.2804 11.8925 13.6642C12.3367 14.0394 12.7039 14.2953 12.9943 14.4488C13.037 14.4658 13.0883 14.4914 13.1481 14.517C13.2164 14.5426 13.2847 14.5511 13.3616 14.5511C13.5068 14.5511 13.6178 14.4999 13.7118 14.4061L14.3609 13.7665C14.5744 13.5533 14.7794 13.3913 14.9758 13.2889C15.1723 13.1695 15.3687 13.1098 15.5823 13.1098C15.7445 13.1098 15.9154 13.1439 16.1033 13.2207C16.2912 13.2974 16.4876 13.4083 16.7011 13.5533L19.5282 15.5574C19.7503 15.7109 19.904 15.89 19.998 16.1032C20.0834 16.3165 20.1347 16.5297 20.1347 16.7685Z" stroke="url(#paint0_linear_54_242)" stroke-width="1.42138" stroke-miterlimit="10"/>
<defs>
<linearGradient id="paint0_linear_54_242" x1="24.3082" y1="6.79033" x2="8.50229" y2="18.1367" gradientUnits="userSpaceOnUse">
<stop stop-color="#00FFFF"/>
<stop offset="0.14" stop-color="#00FAFF"/>
<stop offset="0.31" stop-color="#00ECFF"/>
<stop offset="0.48" stop-color="#00D5FF"/>
<stop offset="0.66" stop-color="#00B6FF"/>
<stop offset="0.84" stop-color="#008DFF"/>
<stop offset="1" stop-color="#0065FF"/>
</linearGradient>
</defs>
</svg>
