<svg width="443" height="443" viewBox="0 0 443 443" fill="none" xmlns="http://www.w3.org/2000/svg">
<g opacity="0.2">
<path d="M77.9948 279.381C78.8346 277.981 79.7193 276.591 80.6711 275.236C78.8122 265.364 77.4125 244.748 93.9297 231.403C93.1458 230.485 92.3956 229.532 91.6677 228.546C67.0094 246.35 78.006 279.381 78.006 279.381H77.9948Z" fill="black"/>
<path d="M80.6663 275.236C89.7591 262.093 103.387 251.101 111.506 245.207C104.888 241.947 98.8632 237.275 93.9136 231.392C77.4076 244.737 78.7962 265.364 80.6551 275.224L80.6663 275.236Z" fill="black"/>
<path d="M80.6663 275.236C89.7591 262.093 103.387 251.101 111.506 245.207C104.888 241.947 98.8632 237.275 93.9136 231.392C77.4076 244.737 78.7962 265.364 80.6551 275.224L80.6663 275.236Z" fill="black"/>
<path d="M310.016 388.805C310.856 389.03 311.729 389.254 312.625 389.478C310.408 373.343 309.759 356.783 311.685 340.715C331.035 363.998 354.26 385.534 366.925 396.772C368.784 396.794 370.665 396.783 372.558 396.761C371.382 395.752 335.682 365.959 307.944 332.581C305.716 351.147 306.937 370.351 310.016 388.805Z" fill="black"/>
<path d="M312.614 389.466C326.567 392.951 345.794 396.503 366.925 396.76C354.249 385.522 331.035 363.987 311.684 340.704C309.747 356.771 310.408 373.332 312.625 389.466H312.614Z" fill="black"/>
<path d="M312.614 389.466C326.567 392.951 345.794 396.503 366.925 396.76C354.249 385.522 331.035 363.987 311.684 340.704C309.747 356.771 310.408 373.332 312.625 389.466H312.614Z" fill="black"/>
<path d="M223.97 372.839C240.218 386.15 257.822 397.915 275.459 409.108C282.256 413.411 289.064 417.837 296.097 421.758C298.829 423.271 300.173 424.503 306.959 428.346C303.465 418.542 300.587 408.503 298.336 398.318C289.232 357.119 287.687 310.071 312.536 273.835C319.915 263.068 328.336 252.916 334.417 241.308C342.289 226.305 347.429 209.868 348.224 192.893C348.717 182.394 347.955 171.851 346.186 161.498C345.29 156.299 344.148 151.134 342.771 146.036C342.054 143.391 341.281 140.758 340.452 138.147C339.926 136.5 338.045 133.285 338.213 131.604C337.855 135.178 337.373 138.741 336.757 142.304C337.967 146.954 338.997 151.671 339.803 156.411C341.572 166.764 342.345 177.308 341.852 187.795C341.057 204.781 335.906 221.207 328.045 236.21C321.964 247.818 313.555 257.969 306.164 268.748C281.315 304.984 282.861 352.032 291.965 393.231C294.215 403.405 297.093 413.444 300.587 423.248C293.812 419.416 292.457 418.184 289.725 416.66C282.704 412.75 275.884 408.324 269.087 404.01C253.734 394.285 238.404 384.1 223.97 372.839Z" fill="black"/>
<path d="M286.312 222.697C296.95 212.512 305.931 200.445 313.064 187.28C315.908 179.347 318.204 171.268 319.929 163.179C325.46 137.206 325.36 106.584 309.156 77.329C302.93 66.102 294.318 55.0543 282.751 44.5668C281.911 43.8049 281.093 43.0542 280.22 42.3035C280.377 42.5051 281.082 43.4127 282.101 44.959C290.847 53.7994 297.633 62.9535 302.784 72.2533C318.988 101.52 319.1 132.142 313.568 158.103C308.73 180.803 299.391 203.448 286.334 222.709L286.312 222.697Z" fill="black"/>
<path d="M269.199 153.162C275.246 144.041 279.725 135.257 282.95 126.864C283.488 122.775 283.902 118.382 284.115 113.8C284.988 94.7632 282.379 72.1635 270.577 51.4126C264.832 41.3061 256.915 31.6253 246.153 23.0202C245.918 22.8297 245.694 22.628 245.448 22.4487C245.515 22.516 245.806 22.8297 246.254 23.4011C246.377 23.558 246.512 23.7373 246.646 23.9277C254.003 30.953 259.759 38.5049 264.194 46.3257C275.996 67.099 278.606 89.6763 277.721 108.724C276.568 133.71 269.412 152.579 269.188 153.173L269.199 153.162Z" fill="black"/>
<path d="M91.8404 215.493C94.5504 221.375 98.2458 226.462 102.635 230.608C108.268 235.941 115.009 239.762 122.21 241.79C117.596 239.661 113.274 236.748 109.455 233.129C105.065 228.983 101.37 223.896 98.6601 218.014C96.1853 212.624 94.808 207.033 94.3488 201.487C93.8449 198.014 93.9121 194.327 94.6736 190.439C96.8572 175.817 105.211 161.599 119.153 155.178C120.788 154.428 153.531 138.607 199.376 154.204C199.342 154.181 199.298 154.17 199.253 154.148C149.936 134.528 114.046 151.862 112.322 152.657C98.3801 159.078 90.0264 173.296 87.8427 187.918C87.0813 191.806 87.0253 195.481 87.518 198.966C87.9771 204.512 89.3545 210.103 91.8293 215.493H91.8404Z" fill="black"/>
<path d="M98.6732 218.014C101.383 223.896 105.079 228.983 109.468 233.129C113.287 236.748 117.609 239.65 122.223 241.79C124.899 242.541 127.643 243.045 130.409 243.303C131.193 243.381 131.965 243.426 132.749 243.459C133.242 243.997 133.835 244.658 134.518 245.499C135.067 246.16 135.683 246.922 136.366 247.818C157.62 275.796 166.31 310.743 188.818 338.183C199.288 350.99 211.214 362.385 223.98 372.839C238.415 384.099 253.745 394.284 269.097 404.01C275.895 408.324 282.703 412.75 289.736 416.66C292.468 418.184 293.823 419.416 300.598 423.248C300.363 422.576 300.127 421.904 299.903 421.232C296.712 412.066 294.069 402.699 291.986 393.231C282.882 352.032 281.337 304.984 306.186 268.748C313.565 257.981 321.986 247.818 328.067 236.21C335.939 221.207 341.079 204.781 341.874 187.795C342.322 178.394 341.74 168.949 340.351 159.649C340.194 158.573 340.015 157.487 339.836 156.411C339.03 151.66 337.999 146.954 336.79 142.304C333.655 160.635 327.227 178.831 317.899 195.201C311.034 207.257 302.591 218.339 292.714 227.773C294.024 225.835 295.312 223.863 296.544 221.857C303.218 211.056 308.795 199.347 313.095 187.268C312.591 188.187 312.087 189.106 311.572 190.025C304.696 202.114 296.23 213.218 286.343 222.697C299.411 203.437 308.739 180.792 313.576 158.092C319.108 132.119 318.996 101.497 302.793 72.242C300.967 68.9478 298.929 65.6649 296.667 62.3931C292.569 56.4771 287.742 50.6395 282.11 44.9476C282.726 45.8664 283.453 47.0316 284.26 48.3986C291.55 60.8917 304.797 91.5475 289.489 131.626C286.253 140.108 281.74 149.005 275.604 158.248C275.66 158.103 276.186 156.713 276.958 154.304C278.336 149.957 280.508 142.271 282.132 132.511C282.177 132.287 282.21 132.075 282.244 131.862C282.513 130.248 282.748 128.59 282.972 126.887C279.747 135.279 275.268 144.063 269.221 153.184C269.445 152.601 276.6 133.733 277.754 108.735C278.638 89.6987 276.029 67.1103 264.226 46.337C262.714 43.6815 261.068 41.0596 259.243 38.4825C255.704 33.4517 251.539 28.5777 246.679 23.939C252.233 31.4909 272.77 68.8358 221.237 157.419C199.322 195.089 186.623 227.045 184.697 254.462C183.813 267.011 185.179 278.608 188.952 289.353C182.648 278.855 179.076 267.471 178.068 255.09C178.068 255.09 178.068 255.09 178.068 255.067C175.839 227.795 186.007 195.649 206.679 157.318C204.227 156.187 201.797 155.145 199.412 154.204C153.566 138.618 120.823 154.428 119.188 155.178C105.247 161.599 96.8927 175.817 94.7091 190.439C93.9476 194.327 93.8917 198.002 94.3844 201.487C94.8435 207.033 96.2209 212.624 98.6957 218.014H98.6732Z" fill="black"/>
</g>
</svg>
