<svg width="293" height="317" viewBox="0 0 293 317" fill="none" xmlns="http://www.w3.org/2000/svg">
<g opacity="0.1">
<path d="M237.189 199.918C236.588 198.916 235.955 197.922 235.274 196.952C236.604 189.888 237.605 175.136 225.786 165.587C226.347 164.929 226.884 164.248 227.405 163.542C245.05 176.282 237.181 199.918 237.181 199.918H237.189Z" fill="url(#paint0_linear_58_203)"/>
<path d="M235.277 196.952C228.77 187.547 219.018 179.682 213.209 175.464C217.945 173.131 222.256 169.788 225.798 165.579C237.609 175.128 236.615 189.888 235.285 196.944L235.277 196.952Z" fill="url(#paint1_linear_58_203)"/>
<path d="M235.277 196.952C228.77 187.547 219.018 179.682 213.209 175.464C217.945 173.131 222.256 169.788 225.798 165.579C237.609 175.128 236.615 189.888 235.285 196.944L235.277 196.952Z" fill="url(#paint2_linear_58_203)"/>
<path d="M71.1594 278.22C70.5584 278.38 69.9334 278.541 69.2924 278.701C70.879 267.155 71.3437 255.305 69.9655 243.808C56.1188 260.469 39.4997 275.879 30.4368 283.92C29.1067 283.936 27.7605 283.928 26.4062 283.912C27.2476 283.191 52.7934 261.872 72.6418 237.987C74.2365 251.272 73.363 265.015 71.1594 278.22Z" fill="url(#paint3_linear_58_203)"/>
<path d="M69.301 278.693C59.3167 281.186 45.5582 283.728 30.4375 283.912C39.5083 275.87 56.1195 260.46 69.9661 243.799C71.3524 255.297 70.8796 267.147 69.293 278.693H69.301Z" fill="url(#paint4_linear_58_203)"/>
<path d="M69.301 278.693C59.3167 281.186 45.5582 283.728 30.4375 283.912C39.5083 275.87 56.1195 260.46 69.9661 243.799C71.3524 255.297 70.8796 267.147 69.293 278.693H69.301Z" fill="url(#paint5_linear_58_203)"/>
<path d="M132.732 266.795C121.105 276.32 108.509 284.738 95.8883 292.748C91.0243 295.827 86.1523 298.994 81.1201 301.8C79.1649 302.882 78.2034 303.764 73.3474 306.514C75.8475 299.499 77.9069 292.315 79.5175 285.027C86.0321 255.546 87.138 221.879 69.3569 195.95C64.0762 188.245 58.0504 180.981 53.6993 172.674C48.0661 161.939 44.3881 150.177 43.8191 138.03C43.4666 130.517 44.0114 122.972 45.2775 115.564C45.9186 111.844 46.7359 108.148 47.7215 104.5C48.2343 102.607 48.7873 100.723 49.3802 98.8551C49.7568 97.6765 51.103 95.3754 50.9828 94.1727C51.2393 96.7304 51.5838 99.28 52.0245 101.83C51.1591 105.157 50.4219 108.532 49.845 111.924C48.5789 119.332 48.026 126.877 48.3786 134.382C48.9475 146.537 52.6335 158.291 58.2587 169.026C62.6099 177.333 68.6277 184.597 73.9163 192.31C91.6974 218.239 90.5916 251.906 84.0769 281.387C82.4663 288.667 80.407 295.851 77.9069 302.866C82.7548 300.124 83.7244 299.242 85.6796 298.152C90.7038 295.354 95.5838 292.187 100.448 289.1C111.434 282.141 122.404 274.852 132.732 266.795Z" fill="url(#paint6_linear_58_203)"/>
<path d="M88.1227 159.357C80.5102 152.069 74.0837 143.434 68.9793 134.013C66.944 128.336 65.3013 122.555 64.0673 116.767C60.1088 98.1814 60.181 76.269 71.7759 55.3347C76.2312 47.3009 82.3933 39.3954 90.6708 31.8908C91.2718 31.3456 91.8568 30.8084 92.4818 30.2712C92.3696 30.4156 91.8648 31.065 91.1356 32.1714C84.8773 38.4974 80.0214 45.0479 76.3354 51.7026C64.7404 72.645 64.6603 94.5574 68.6188 113.135C72.0804 129.378 78.7633 145.582 88.1066 159.365L88.1227 159.357Z" fill="url(#paint7_linear_58_203)"/>
<path d="M100.368 109.599C96.0409 103.072 92.8357 96.7864 90.5279 90.7811C90.1433 87.8547 89.8468 84.7117 89.6945 81.4324C89.0695 67.8103 90.9366 51.6385 99.3824 36.7897C103.493 29.5577 109.158 22.6304 116.859 16.4727C117.027 16.3364 117.187 16.1921 117.364 16.0638C117.316 16.1119 117.107 16.3364 116.787 16.7454C116.699 16.8576 116.603 16.9859 116.506 17.1222C111.242 22.1493 107.123 27.5533 103.95 33.1496C95.504 48.0145 93.637 64.1703 94.27 77.8004C95.0954 95.68 100.216 109.182 100.376 109.607L100.368 109.599Z" fill="url(#paint8_linear_58_203)"/>
<path d="M227.281 154.201C225.342 158.411 222.697 162.051 219.556 165.017C215.526 168.834 210.702 171.568 205.549 173.019C208.851 171.496 211.944 169.411 214.676 166.821C217.817 163.855 220.462 160.215 222.401 156.005C224.172 152.149 225.157 148.148 225.486 144.179C225.847 141.694 225.798 139.056 225.254 136.274C223.691 125.811 217.713 115.636 207.737 111.042C206.567 110.505 183.137 99.1837 150.331 110.344C150.355 110.328 150.387 110.32 150.419 110.304C185.709 96.2653 211.391 108.669 212.625 109.238C222.601 113.832 228.579 124.007 230.142 134.47C230.686 137.252 230.726 139.882 230.374 142.375C230.045 146.344 229.06 150.345 227.289 154.201H227.281Z" fill="url(#paint9_linear_58_203)"/>
<path d="M222.392 156.005C220.452 160.215 217.808 163.855 214.667 166.821C211.934 169.411 208.841 171.488 205.54 173.019C203.625 173.556 201.662 173.917 199.682 174.101C199.122 174.157 198.569 174.19 198.008 174.214C197.655 174.598 197.23 175.072 196.742 175.673C196.349 176.146 195.908 176.691 195.419 177.333C180.211 197.353 173.992 222.36 157.886 241.996C150.394 251.16 141.86 259.314 132.725 266.794C122.396 274.852 111.426 282.14 100.44 289.1C95.5763 292.187 90.7043 295.354 85.6721 298.152C83.7169 299.242 82.7473 300.124 77.8994 302.866C78.0676 302.385 78.2359 301.904 78.3962 301.423C80.6799 294.865 82.571 288.162 84.0614 281.387C90.5761 251.905 91.6819 218.239 73.9008 192.31C68.6202 184.605 62.5943 177.333 58.2432 169.026C52.61 158.29 48.932 146.536 48.3631 134.381C48.0425 127.655 48.4592 120.896 49.4528 114.241C49.565 113.471 49.6932 112.694 49.8215 111.924C50.3984 108.524 51.1356 105.157 52.001 101.829C54.2447 114.947 58.8442 127.967 65.5191 139.681C70.4311 148.308 76.473 156.238 83.5406 162.989C82.6031 161.602 81.6815 160.191 80.8001 158.755C76.0243 151.026 72.0338 142.648 68.9567 134.005C69.3173 134.662 69.6779 135.32 70.0465 135.977C74.9666 144.628 81.0245 152.574 88.1 159.357C78.7488 145.574 72.0738 129.37 68.6122 113.126C64.6537 94.5414 64.7338 72.6289 76.3288 51.6946C77.6349 49.3374 79.0933 46.9882 80.712 44.647C83.6448 40.4136 87.0984 36.2364 91.129 32.1634C90.6883 32.8208 90.1674 33.6547 89.5905 34.6328C84.3739 43.5726 74.8945 65.5091 85.8484 94.1886C88.1641 100.258 91.3934 106.624 95.7846 113.239C95.7445 113.134 95.3679 112.14 94.815 110.416C93.8294 107.306 92.2748 101.805 91.1129 94.822C91.0809 94.6616 91.0569 94.5093 91.0328 94.357C90.8405 93.2024 90.6722 92.0158 90.512 90.7971C92.8197 96.8024 96.025 103.088 100.352 109.615C100.192 109.198 95.0714 95.6959 94.2461 77.8083C93.613 64.1862 95.4801 48.0225 103.926 33.1576C105.008 31.2574 106.186 29.3812 107.492 27.5371C110.024 23.9372 113.005 20.4495 116.482 17.1301C112.508 22.5341 97.8119 49.2572 134.688 112.645C150.37 139.601 159.457 162.468 160.835 182.087C161.468 191.067 160.49 199.365 157.79 207.054C162.301 199.542 164.858 191.396 165.579 182.536C165.579 182.536 165.579 182.536 165.579 182.52C167.173 163.005 159.897 140.002 145.105 112.573C146.86 111.763 148.599 111.018 150.306 110.344C183.111 99.1916 206.542 110.505 207.712 111.042C217.688 115.636 223.666 125.811 225.228 136.274C225.773 139.056 225.813 141.686 225.461 144.179C225.132 148.148 224.146 152.149 222.376 156.005H222.392Z" fill="url(#paint10_linear_58_203)"/>
</g>
<defs>
<linearGradient id="paint0_linear_58_203" x1="240.134" y1="215.946" x2="227.753" y2="150.336" gradientUnits="userSpaceOnUse">
<stop stop-color="#00FFFF"/>
<stop offset="0.14" stop-color="#00FAFF"/>
<stop offset="0.31" stop-color="#00ECFF"/>
<stop offset="0.48" stop-color="#00D5FF"/>
<stop offset="0.66" stop-color="#00B6FF"/>
<stop offset="0.84" stop-color="#008DFF"/>
<stop offset="1" stop-color="#0065FF"/>
</linearGradient>
<linearGradient id="paint1_linear_58_203" x1="294.147" y1="152.864" x2="106.534" y2="236.492" gradientUnits="userSpaceOnUse">
<stop stop-color="#00FFFF"/>
<stop offset="0.14" stop-color="#00FAFF"/>
<stop offset="0.31" stop-color="#00ECFF"/>
<stop offset="0.48" stop-color="#00D5FF"/>
<stop offset="0.66" stop-color="#00B6FF"/>
<stop offset="0.84" stop-color="#008DFF"/>
<stop offset="1" stop-color="#0065FF"/>
</linearGradient>
<linearGradient id="paint2_linear_58_203" x1="294.147" y1="152.864" x2="106.534" y2="236.492" gradientUnits="userSpaceOnUse">
<stop stop-color="#00FFFF"/>
<stop offset="0.14" stop-color="#00FAFF"/>
<stop offset="0.31" stop-color="#00ECFF"/>
<stop offset="0.48" stop-color="#00D5FF"/>
<stop offset="0.66" stop-color="#00B6FF"/>
<stop offset="0.84" stop-color="#008DFF"/>
<stop offset="1" stop-color="#0065FF"/>
</linearGradient>
<linearGradient id="paint3_linear_58_203" x1="80.0345" y1="254.47" x2="24.3855" y2="279.277" gradientUnits="userSpaceOnUse">
<stop stop-color="#00FFFF"/>
<stop offset="0.14" stop-color="#00FAFF"/>
<stop offset="0.31" stop-color="#00ECFF"/>
<stop offset="0.48" stop-color="#00D5FF"/>
<stop offset="0.66" stop-color="#00B6FF"/>
<stop offset="0.84" stop-color="#008DFF"/>
<stop offset="1" stop-color="#0065FF"/>
</linearGradient>
<linearGradient id="paint4_linear_58_203" x1="273.534" y1="170.256" x2="85.1321" y2="254.237" gradientUnits="userSpaceOnUse">
<stop stop-color="#00FFFF"/>
<stop offset="0.14" stop-color="#00FAFF"/>
<stop offset="0.31" stop-color="#00ECFF"/>
<stop offset="0.48" stop-color="#00D5FF"/>
<stop offset="0.66" stop-color="#00B6FF"/>
<stop offset="0.84" stop-color="#008DFF"/>
<stop offset="1" stop-color="#0065FF"/>
</linearGradient>
<linearGradient id="paint5_linear_58_203" x1="273.534" y1="170.256" x2="85.1321" y2="254.237" gradientUnits="userSpaceOnUse">
<stop stop-color="#00FFFF"/>
<stop offset="0.14" stop-color="#00FAFF"/>
<stop offset="0.31" stop-color="#00ECFF"/>
<stop offset="0.48" stop-color="#00D5FF"/>
<stop offset="0.66" stop-color="#00B6FF"/>
<stop offset="0.84" stop-color="#008DFF"/>
<stop offset="1" stop-color="#0065FF"/>
</linearGradient>
<linearGradient id="paint6_linear_58_203" x1="97.6944" y1="299.811" x2="68.3881" y2="-2.39368" gradientUnits="userSpaceOnUse">
<stop stop-color="#00FFFF"/>
<stop offset="0.14" stop-color="#00FAFF"/>
<stop offset="0.31" stop-color="#00ECFF"/>
<stop offset="0.48" stop-color="#00D5FF"/>
<stop offset="0.66" stop-color="#00B6FF"/>
<stop offset="0.84" stop-color="#008DFF"/>
<stop offset="1" stop-color="#0065FF"/>
</linearGradient>
<linearGradient id="paint7_linear_58_203" x1="99.8452" y1="299.601" x2="70.5389" y2="-2.60346" gradientUnits="userSpaceOnUse">
<stop stop-color="#00FFFF"/>
<stop offset="0.14" stop-color="#00FAFF"/>
<stop offset="0.31" stop-color="#00ECFF"/>
<stop offset="0.48" stop-color="#00D5FF"/>
<stop offset="0.66" stop-color="#00B6FF"/>
<stop offset="0.84" stop-color="#008DFF"/>
<stop offset="1" stop-color="#0065FF"/>
</linearGradient>
<linearGradient id="paint8_linear_58_203" x1="127.525" y1="296.917" x2="98.219" y2="-5.287" gradientUnits="userSpaceOnUse">
<stop stop-color="#00FFFF"/>
<stop offset="0.14" stop-color="#00FAFF"/>
<stop offset="0.31" stop-color="#00ECFF"/>
<stop offset="0.48" stop-color="#00D5FF"/>
<stop offset="0.66" stop-color="#00B6FF"/>
<stop offset="0.84" stop-color="#008DFF"/>
<stop offset="1" stop-color="#0065FF"/>
</linearGradient>
<linearGradient id="paint9_linear_58_203" x1="231.05" y1="181.736" x2="165.178" y2="80.9742" gradientUnits="userSpaceOnUse">
<stop stop-color="#00FFFF"/>
<stop offset="0.14" stop-color="#00FAFF"/>
<stop offset="0.31" stop-color="#00ECFF"/>
<stop offset="0.48" stop-color="#00D5FF"/>
<stop offset="0.66" stop-color="#00B6FF"/>
<stop offset="0.84" stop-color="#008DFF"/>
<stop offset="1" stop-color="#0065FF"/>
</linearGradient>
<linearGradient id="paint10_linear_58_203" x1="269.105" y1="83.2772" x2="61.2535" y2="175.929" gradientUnits="userSpaceOnUse">
<stop stop-color="#00FFFF"/>
<stop offset="0.14" stop-color="#00FAFF"/>
<stop offset="0.31" stop-color="#00ECFF"/>
<stop offset="0.48" stop-color="#00D5FF"/>
<stop offset="0.66" stop-color="#00B6FF"/>
<stop offset="0.84" stop-color="#008DFF"/>
<stop offset="1" stop-color="#0065FF"/>
</linearGradient>
</defs>
</svg>
