<svg width="291" height="425" viewBox="0 0 291 425" fill="none" xmlns="http://www.w3.org/2000/svg">
<path d="M58.5436 389.083C43.7178 392.788 23.2878 396.564 0.834961 396.838C14.3043 384.889 38.9703 361.993 59.5312 337.238C61.5897 354.321 60.8876 371.928 58.5317 389.083H58.5436Z" fill="url(#paint0_linear_18_26)"/>
<path d="M285.868 206.794C282.989 213.048 279.062 218.456 274.398 222.864C270.341 226.712 265.748 229.797 260.845 232.072C258.002 232.871 255.086 233.407 252.147 233.681C251.315 233.764 250.494 233.812 249.661 233.847C249.137 234.419 248.506 235.122 247.781 236.016C247.198 236.718 246.543 237.528 245.817 238.482C223.234 268.228 214 305.384 190.084 334.558C178.959 348.174 166.287 360.29 152.722 371.404C137.385 383.377 121.095 394.205 104.782 404.546C97.5597 409.132 90.3253 413.838 82.853 417.995C79.9497 419.615 78.5099 420.926 71.3112 425C71.5611 424.285 71.811 423.57 72.0489 422.856C75.4401 413.111 78.2481 403.152 80.4613 393.086C90.1349 349.282 91.7769 299.261 65.3738 260.735C57.5325 249.286 48.5847 238.482 42.1237 226.14C33.759 210.189 28.2975 192.725 27.4527 174.665C26.9767 164.67 27.5954 154.627 29.0709 144.74C29.2375 143.596 29.4278 142.441 29.6182 141.297C30.4749 136.246 31.5696 131.243 32.8547 126.299C36.1863 145.788 43.0161 165.134 52.9277 182.539C60.2216 195.357 69.1933 207.139 79.6879 217.17C78.2957 215.109 76.9274 213.012 75.6185 210.88C68.5269 199.396 62.6014 186.947 58.0323 174.105C58.5677 175.082 59.1032 176.059 59.6505 177.035C66.9563 189.889 75.9517 201.695 86.4583 211.773C72.5725 191.295 62.6609 167.219 57.5206 143.084C51.6427 115.47 51.7617 82.9124 68.9791 51.8082C70.9186 48.3058 73.0841 44.8154 75.4877 41.3368C79.8426 35.0469 84.9709 28.8403 90.956 22.7886C90.3015 23.7655 89.5281 25.0044 88.6714 26.4578C80.9253 39.7405 66.8492 72.3339 83.1147 114.946C86.5534 123.964 91.3486 133.423 97.8691 143.251C97.8096 143.096 97.2504 141.619 96.4294 139.057C94.9658 134.435 92.6574 126.263 90.9321 115.887C90.8845 115.649 90.8489 115.422 90.8132 115.196C90.5276 113.481 90.2777 111.718 90.0397 109.907C93.4666 118.829 98.226 128.169 104.651 137.866C104.413 137.247 96.8101 117.186 95.5845 90.6081C94.6445 70.3683 97.4169 46.3521 109.958 24.2658C111.564 21.4425 113.314 18.6549 115.253 15.9149C119.013 10.5661 123.439 5.38404 128.603 0.452148C122.702 8.48137 100.879 48.1867 155.637 142.369C178.923 182.42 192.416 216.395 194.463 245.546C195.403 258.888 193.951 271.218 189.941 282.642C196.64 271.48 200.436 259.377 201.507 246.213C201.507 246.213 201.507 246.213 201.507 246.189C203.874 217.193 193.07 183.016 171.105 142.262C173.711 141.059 176.293 139.951 178.828 138.95C227.541 122.38 262.333 139.188 264.07 139.987C278.884 146.813 287.76 161.93 290.08 177.476C290.89 181.61 290.949 185.517 290.426 189.222C289.938 195.119 288.474 201.063 285.845 206.794H285.868Z" fill="url(#paint1_linear_18_26)"/>
<defs>
<linearGradient id="paint0_linear_18_26" x1="361.809" y1="227.968" x2="81.995" y2="352.62" gradientUnits="userSpaceOnUse">
<stop stop-color="#00FFFF"/>
<stop offset="0.14" stop-color="#00FAFF"/>
<stop offset="0.31" stop-color="#00ECFF"/>
<stop offset="0.48" stop-color="#00D5FF"/>
<stop offset="0.66" stop-color="#00B6FF"/>
<stop offset="0.84" stop-color="#008DFF"/>
<stop offset="1" stop-color="#0065FF"/>
</linearGradient>
<linearGradient id="paint1_linear_18_26" x1="355.233" y1="98.7337" x2="46.5317" y2="236.258" gradientUnits="userSpaceOnUse">
<stop stop-color="#00FFFF"/>
<stop offset="0.14" stop-color="#00FAFF"/>
<stop offset="0.31" stop-color="#00ECFF"/>
<stop offset="0.48" stop-color="#00D5FF"/>
<stop offset="0.66" stop-color="#00B6FF"/>
<stop offset="0.84" stop-color="#008DFF"/>
<stop offset="1" stop-color="#0065FF"/>
</linearGradient>
</defs>
</svg>
