<svg width="23" height="16" viewBox="0 0 23 16" fill="none" xmlns="http://www.w3.org/2000/svg">
<path d="M19.2099 2.15942L20.5988 1.24219H18.9344H3.53437H1.86992L3.25884 2.15942L10.9588 7.24442L11.2344 7.42638L11.5099 7.24442L19.2099 2.15942ZM1.03987 14.4412L0.695487 14.802L1.03987 14.4412C0.841327 14.2516 0.734375 13.9997 0.734375 13.7422V1.74219C0.734375 1.48467 0.841327 1.23273 1.03987 1.04321C1.23921 0.852929 1.51433 0.742188 1.8058 0.742188H20.6629C20.9544 0.742188 21.2295 0.852929 21.4289 1.0432C21.6274 1.23273 21.7344 1.48468 21.7344 1.74219V13.7422C21.7344 13.9997 21.6274 14.2516 21.4289 14.4412C21.2295 14.6314 20.9544 14.7422 20.6629 14.7422H1.8058C1.51433 14.7422 1.23921 14.6314 1.03987 14.4412ZM1.3058 13.7422V14.2422H1.8058H20.6629H21.1629V13.7422V2.42469V1.49515L20.3874 2.00749L11.4066 7.93999L11.4062 7.9403C11.3578 7.97235 11.2978 7.99095 11.2344 7.99095C11.1709 7.99095 11.111 7.97235 11.0626 7.9403L11.0621 7.93999L2.08139 2.00749L1.3058 1.49515V2.42469V13.7422Z" fill="white" stroke="url(#paint0_linear_74_25)"/>
<defs>
<linearGradient id="paint0_linear_74_25" x1="27.6176" y1="3.71464" x2="12.9661" y2="19.1405" gradientUnits="userSpaceOnUse">
<stop stop-color="#00FFFF"/>
<stop offset="0.14" stop-color="#00FAFF"/>
<stop offset="0.31" stop-color="#00ECFF"/>
<stop offset="0.48" stop-color="#00D5FF"/>
<stop offset="0.66" stop-color="#00B6FF"/>
<stop offset="0.84" stop-color="#008DFF"/>
<stop offset="1" stop-color="#0065FF"/>
</linearGradient>
</defs>
</svg>
