<svg width="122" height="119" viewBox="0 0 122 119" fill="none" xmlns="http://www.w3.org/2000/svg">
<g clip-path="url(#clip0_54_280)">
<path d="M84.5879 42.0746C84.4499 41.8453 84.3045 41.6178 84.148 41.3958C84.4535 39.7793 84.6836 36.4032 81.9688 34.2179C82.0976 34.0674 82.2209 33.9115 82.3405 33.75C86.3935 36.6656 84.5861 42.0746 84.5861 42.0746H84.5879Z" fill="url(#paint0_linear_54_280)"/>
<path d="M84.1481 41.3955C82.6535 39.2433 80.4135 37.4433 79.0791 36.4782C80.1669 35.9442 81.1571 35.1791 81.9707 34.2158C84.6837 36.4011 84.4555 39.779 84.1499 41.3937L84.1481 41.3955Z" fill="url(#paint1_linear_54_280)"/>
<path d="M84.1481 41.3955C82.6535 39.2433 80.4135 37.4433 79.0791 36.4782C80.1669 35.9442 81.1571 35.1791 81.9707 34.2158C84.6837 36.4011 84.4555 39.779 84.1499 41.3937L84.1481 41.3955Z" fill="url(#paint2_linear_54_280)"/>
<path d="M46.4506 59.9933C46.3126 60.03 46.169 60.0667 46.0217 60.1034C46.3862 57.4613 46.4929 54.7494 46.1764 52.1182C42.9958 55.931 39.1784 59.4576 37.0967 61.2979C36.7912 61.3016 36.482 61.2997 36.1709 61.2961C36.3642 61.1309 42.232 56.2521 46.7911 50.7861C47.1574 53.8265 46.9568 56.9714 46.4506 59.9933Z" fill="url(#paint3_linear_54_280)"/>
<path d="M46.0236 60.1019C43.7302 60.6725 40.5699 61.2542 37.0967 61.2964C39.1802 59.456 42.9958 55.9295 46.1763 52.1167C46.4947 54.7479 46.3861 57.4597 46.0217 60.1019H46.0236Z" fill="url(#paint4_linear_54_280)"/>
<path d="M46.0236 60.1019C43.7302 60.6725 40.5699 61.2542 37.0967 61.2964C39.1802 59.456 42.9958 55.9295 46.1763 52.1167C46.4947 54.7479 46.3861 57.4597 46.0217 60.1019H46.0236Z" fill="url(#paint5_linear_54_280)"/>
<path d="M60.5939 57.379C57.9232 59.5588 55.0298 61.4853 52.1308 63.3183C51.0136 64.0229 49.8945 64.7477 48.7386 65.3899C48.2895 65.6376 48.0686 65.8394 46.9532 66.4688C47.5275 64.8633 48.0005 63.2193 48.3705 61.5514C49.8669 54.8047 50.1209 47.1002 46.0366 41.1664C44.8237 39.4031 43.4396 37.7407 42.4401 35.8399C41.1462 33.383 40.3013 30.6913 40.1707 27.9115C40.0897 26.1923 40.2148 24.4657 40.5057 22.7703C40.6529 21.919 40.8406 21.0731 41.067 20.2383C41.1848 19.8052 41.3118 19.3741 41.448 18.9465C41.5345 18.6768 41.8438 18.1502 41.8162 17.875C41.8751 18.4603 41.9542 19.0438 42.0554 19.6273C41.8566 20.3887 41.6873 21.1612 41.5548 21.9373C41.264 23.6327 41.137 25.3593 41.218 27.0767C41.3486 29.8583 42.1953 32.5482 43.4874 35.005C44.4869 36.9059 45.8691 38.5683 47.0839 40.3334C51.1682 46.2672 50.9142 53.9717 49.4178 60.7184C49.0478 62.3844 48.5748 64.0284 48.0005 65.6339C49.1141 65.0064 49.3368 64.8046 49.7859 64.555C50.94 63.9147 52.0609 63.1899 53.1781 62.4835C55.7016 60.8909 58.2214 59.223 60.5939 57.379Z" fill="url(#paint6_linear_54_280)"/>
<path d="M50.3477 32.7923C48.5991 31.1244 47.1229 29.1483 45.9505 26.9924C45.483 25.6933 45.1057 24.3704 44.8222 23.0457C43.9129 18.7925 43.9295 13.7779 46.5929 8.98716C47.6162 7.14865 49.0316 5.33951 50.933 3.6221C51.071 3.49733 51.2054 3.3744 51.3489 3.25146C51.3232 3.28449 51.2072 3.43311 51.0397 3.68632C49.6022 5.134 48.4868 6.63306 47.6401 8.15598C44.9768 12.9486 44.9584 17.9632 45.8677 22.2145C46.6628 25.9318 48.1978 29.64 50.344 32.7941L50.3477 32.7923Z" fill="url(#paint7_linear_54_280)"/>
<path d="M53.1597 21.4052C52.1658 19.9116 51.4295 18.4731 50.8994 17.0988C50.8111 16.4291 50.743 15.7098 50.708 14.9594C50.5644 11.842 50.9933 8.14116 52.9333 4.74305C53.8775 3.08803 55.1788 1.50273 56.9476 0.0935765C56.9863 0.0623844 57.0231 0.0293573 57.0636 0C57.0525 0.011009 57.0047 0.0623844 56.9311 0.155961C56.9108 0.181649 56.8887 0.211006 56.8666 0.242198C55.6574 1.39264 54.7113 2.62932 53.9824 3.91003C52.0424 7.31181 51.6136 11.009 51.759 14.1282C51.9486 18.2199 53.1247 21.3098 53.1615 21.407L53.1597 21.4052Z" fill="url(#paint8_linear_54_280)"/>
<path d="M82.311 31.6125C81.8655 32.5758 81.2581 33.4088 80.5366 34.0877C79.6108 34.9611 78.5028 35.5868 77.3193 35.9189C78.0776 35.5703 78.7881 35.0932 79.4157 34.5005C80.1372 33.8217 80.7446 32.9886 81.19 32.0254C81.5968 31.1428 81.8232 30.2272 81.8987 29.319C81.9815 28.7502 81.9704 28.1465 81.8453 27.5098C81.4864 25.1154 80.1133 22.787 77.8217 21.7356C77.553 21.6127 72.1711 19.0219 64.6357 21.576C64.6413 21.5723 64.6486 21.5705 64.656 21.5668C72.762 18.354 78.6611 21.1925 78.9445 21.3228C81.236 22.3741 82.6091 24.7025 82.968 27.097C83.0932 27.7337 83.1024 28.3355 83.0214 28.9061C82.946 29.8144 82.7196 30.73 82.3128 31.6125H82.311Z" fill="url(#paint9_linear_54_280)"/>
<path d="M81.1888 32.0253C80.7434 32.9886 80.136 33.8216 79.4145 34.5005C78.7868 35.0931 78.0764 35.5684 77.3181 35.9188C76.8782 36.0418 76.4272 36.1243 75.9726 36.1665C75.8437 36.1794 75.7167 36.1867 75.5879 36.1922C75.5069 36.2803 75.4094 36.3885 75.2971 36.5262C75.2069 36.6344 75.1057 36.7592 74.9934 36.906C71.4999 41.4875 70.0716 47.2104 66.372 51.7039C64.6511 53.8011 62.6909 55.6671 60.5926 57.379C58.2201 59.2231 55.7003 60.8909 53.1768 62.4836C52.0596 63.19 50.9405 63.9147 49.7846 64.5551C49.3355 64.8046 49.1128 65.0064 47.9993 65.634C48.0379 65.5239 48.0766 65.4138 48.1134 65.3037C48.6379 63.8028 49.0723 62.2689 49.4147 60.7184C50.9111 53.9718 51.1651 46.2673 47.0808 40.3334C45.8678 38.5702 44.4837 36.906 43.4843 35.0051C42.1903 32.5482 41.3455 29.8584 41.2148 27.0768C41.1412 25.5373 41.2369 23.9906 41.4652 22.4677C41.4909 22.2915 41.5204 22.1135 41.5498 21.9374C41.6823 21.1594 41.8517 20.3888 42.0505 19.6273C42.5658 22.6291 43.6223 25.6089 45.1555 28.2896C46.2838 30.2639 47.6716 32.0785 49.295 33.6234C49.0797 33.306 48.868 32.9831 48.6655 32.6547C47.5686 30.8859 46.6519 28.9685 45.9452 26.9905C46.028 27.141 46.1108 27.2914 46.1955 27.4419C47.3256 29.4217 48.7171 31.24 50.3423 32.7923C48.1944 29.6382 46.6611 25.93 45.866 22.2126C44.9568 17.9595 44.9752 12.9449 47.6385 8.15411C47.9385 7.61467 48.2735 7.07706 48.6453 6.54129C49.319 5.5725 50.1123 4.61655 51.0381 3.68445C50.9368 3.83491 50.8172 4.02573 50.6847 4.24958C49.4865 6.29542 47.309 11.3155 49.8251 17.8787C50.3571 19.2677 51.0988 20.7246 52.1075 22.2383C52.0983 22.2144 52.0117 21.9869 51.8847 21.5924C51.6584 20.8805 51.3013 19.6218 51.0344 18.0237C51.027 17.987 51.0215 17.9521 51.016 17.9173C50.9718 17.653 50.9332 17.3815 50.8963 17.1026C51.4264 18.4769 52.1627 19.9154 53.1566 21.409C53.1198 21.3135 51.9436 18.2237 51.7541 14.1302C51.6087 11.0128 52.0375 7.31376 53.9775 3.91197C54.226 3.47712 54.4965 3.04777 54.7966 2.62576C55.3782 1.80192 56.0629 1.00376 56.8617 0.244141C55.9488 1.48082 52.5731 7.59632 61.0435 22.1025C64.6456 28.2712 66.7328 33.5042 67.0494 37.994C67.1948 40.049 66.9702 41.9481 66.35 43.7077C67.3862 41.9885 67.9734 40.1243 68.139 38.0968C68.139 38.0968 68.139 38.0968 68.139 38.0931C68.5053 33.6271 66.834 28.363 63.4363 22.086C63.8394 21.9007 64.2388 21.73 64.6308 21.5759C72.1662 19.0237 77.5481 21.6126 77.8169 21.7356C80.1084 22.7869 81.4815 25.1153 81.8404 27.5098C81.9655 28.1465 81.9748 28.7483 81.8938 29.3189C81.8183 30.2272 81.5919 31.1427 81.1851 32.0253H81.1888Z" fill="url(#paint10_linear_54_280)"/>
<path d="M26.4273 113.251L24.0438 118.872H22.1756L19.792 113.251H21.8369L23.1824 116.536L24.5591 113.251H26.4273Z" fill="#0065FF"/>
<path d="M33.394 117.442V118.872H28.7061V113.251H33.2891V114.681H30.5743V115.34H32.9578V116.705H30.5743V117.444H33.394V117.442Z" fill="#0065FF"/>
<path d="M41.7794 113.251V118.872H40.2167L38.0743 116.317V118.872H36.2227V113.251H37.7853L39.9278 115.806V113.251H41.7794Z" fill="#0065FF"/>
<path d="M45.4684 118.301C44.9843 117.835 44.7432 117.182 44.7432 116.341V113.25H46.6445V116.284C46.6445 116.697 46.7181 116.996 46.8654 117.183C47.0126 117.371 47.2261 117.464 47.5059 117.464C47.7857 117.464 47.9992 117.371 48.1464 117.183C48.2937 116.996 48.3673 116.697 48.3673 116.284V113.25H50.2355V116.341C50.2355 117.182 49.9944 117.835 49.5103 118.301C49.0262 118.767 48.3526 119 47.4893 119C46.6261 119 45.9506 118.767 45.4684 118.301Z" fill="#0065FF"/>
<path d="M57.8862 117.442V118.872H53.1982V113.251H57.7813V114.681H55.0664V115.34H57.45V116.705H55.0664V117.444H57.8862V117.442Z" fill="#0065FF"/>
<path d="M70.2499 117.426L70.7818 117.875L69.8081 118.976L69.2118 118.463C68.6541 118.822 68.0246 119 67.327 119C66.8816 119 66.4803 118.929 66.1233 118.787C65.7662 118.646 65.4864 118.452 65.2821 118.206C65.0778 117.96 64.9766 117.681 64.9766 117.371C64.9766 117.017 65.0649 116.71 65.2416 116.452C65.4183 116.193 65.6944 115.958 66.0717 115.749C65.7496 115.406 65.5876 115.048 65.5876 114.674C65.5876 114.375 65.6723 114.11 65.8416 113.883C66.011 113.655 66.2484 113.477 66.554 113.349C66.8595 113.22 67.2147 113.156 67.6178 113.156C67.9878 113.156 68.3154 113.213 68.597 113.329C68.8786 113.444 69.0977 113.609 69.2541 113.826C69.4106 114.042 69.4879 114.294 69.4879 114.576C69.4879 114.859 69.4087 115.114 69.2504 115.336C69.0921 115.558 68.8455 115.764 68.5142 115.951L69.1105 116.457C69.2062 116.242 69.2799 116 69.3277 115.727L70.7855 116.16C70.6787 116.631 70.5002 117.053 70.2535 117.428L70.2499 117.426ZM68.1 117.514L67.0693 116.631C66.8595 116.782 66.7546 116.96 66.7546 117.169C66.7546 117.308 66.8172 117.424 66.9442 117.514C67.0712 117.604 67.2442 117.65 67.4632 117.65C67.6822 117.65 67.8902 117.604 68.1 117.514ZM67.338 114.415C67.2699 114.474 67.2368 114.551 67.2368 114.648C67.2368 114.718 67.2571 114.784 67.2976 114.848C67.338 114.912 67.4117 114.995 67.5184 115.097C67.8129 114.938 67.962 114.776 67.962 114.615C67.962 114.529 67.9326 114.459 67.8737 114.406C67.8148 114.353 67.7319 114.325 67.6233 114.325C67.5 114.325 67.4043 114.354 67.338 114.413V114.415Z" fill="#0065FF"/>
<path d="M82.7749 117.442V118.872H78.0869V113.251H82.67V114.681H79.9551V115.34H82.3387V116.705H79.9551V117.444H82.7749V117.442Z" fill="#0065FF"/>
<path d="M91.5455 113.251L89.1619 118.872H87.2937L84.9102 113.251H86.9551L88.3005 116.536L89.6773 113.251H91.5455Z" fill="#0065FF"/>
<path d="M98.5142 117.442V118.872H93.8262V113.251H98.4092V114.681H95.6944V115.34H98.0779V116.705H95.6944V117.444H98.5142V117.442Z" fill="#0065FF"/>
<path d="M106.898 113.251V118.872H105.335L103.192 116.317V118.872H101.341V113.251H102.903L105.046 115.806V113.251H106.898Z" fill="#0065FF"/>
<path d="M111.135 114.721H109.484V113.251H114.688V114.721H113.037V118.872H111.135V114.721Z" fill="#0065FF"/>
<path d="M118.009 118.844C117.566 118.739 117.203 118.6 116.918 118.422L117.531 117.04C117.8 117.196 118.1 117.321 118.433 117.413C118.766 117.506 119.084 117.554 119.392 117.554C119.655 117.554 119.843 117.528 119.955 117.477C120.067 117.426 120.124 117.35 120.124 117.248C120.124 117.13 120.051 117.042 119.903 116.983C119.756 116.925 119.513 116.86 119.175 116.791C118.74 116.699 118.378 116.602 118.087 116.497C117.796 116.393 117.544 116.222 117.33 115.983C117.115 115.745 117.008 115.422 117.008 115.016C117.008 114.662 117.108 114.341 117.306 114.053C117.505 113.765 117.801 113.538 118.197 113.371C118.591 113.205 119.071 113.121 119.635 113.121C120.021 113.121 120.4 113.163 120.774 113.246C121.148 113.328 121.475 113.451 121.761 113.611L121.188 114.983C120.636 114.705 120.111 114.565 119.618 114.565C119.125 114.565 118.886 114.683 118.886 114.919C118.886 115.031 118.957 115.116 119.103 115.172C119.248 115.229 119.487 115.288 119.819 115.352C120.248 115.433 120.61 115.525 120.907 115.629C121.201 115.734 121.459 115.905 121.676 116.139C121.893 116.374 122.002 116.695 122.002 117.103C122.002 117.457 121.902 117.776 121.704 118.062C121.505 118.349 121.208 118.576 120.813 118.745C120.419 118.914 119.938 118.998 119.375 118.998C118.908 118.998 118.453 118.947 118.009 118.842V118.844Z" fill="#0065FF"/>
<path d="M81.0101 80.8888C79.6352 81.6888 78.3155 82.742 77.0823 84.0154L77.0675 84.03C76.9773 84.1218 76.889 84.2154 76.8007 84.3108C76.7914 84.3218 76.7822 84.331 76.7712 84.342C75.1073 86.1291 74.2109 88.496 74.2109 90.9363V107.208H78.702V95.6812C78.702 90.3786 78.9707 86.7621 79.5137 84.8355C80.0401 83.2539 80.8794 81.7603 82.0316 80.353C81.6911 80.5108 81.3506 80.6888 81.0101 80.8888Z" fill="url(#paint11_linear_54_280)"/>
<path d="M3.50449 61.4559H5.13525V60.0063H0V61.4559H1.63076V65.553H3.50633V61.4559H3.50449Z" fill="url(#paint12_linear_54_280)"/>
<path d="M10.1182 65.553H11.9938V60.0063H10.1182V61.9715H8.38435V60.0063H6.50879V65.553H8.38435V63.509H10.1182V65.553Z" fill="url(#paint13_linear_54_280)"/>
<path d="M18.4135 64.1439H15.6324V63.4155H17.9865V62.0669H15.6324V61.4173H18.3104V60.0063H13.7881V65.553H18.4135V64.1421V64.1439Z" fill="url(#paint14_linear_54_280)"/>
<path d="M47.8311 101.874C47.4225 101.886 47.012 101.886 46.6016 101.874H47.8311Z" fill="url(#paint15_linear_54_280)"/>
<path d="M48.4465 107.43V107.457H47.2041C47.6201 107.457 48.0342 107.448 48.4465 107.43Z" fill="url(#paint16_linear_54_280)"/>
<path d="M62.5548 77.1914C59.0835 73.3988 54.7213 71.5034 49.4645 71.5034C44.2078 71.5034 39.8438 73.4098 36.3724 77.2208C33.2342 80.7014 31.666 84.8023 31.666 89.5252C31.666 91.1361 31.8574 92.6774 32.2403 94.1508C33.006 94.848 33.8434 95.4939 34.7509 96.0902L34.7821 96.1122C34.865 96.1691 34.9496 96.2223 35.0343 96.2755C36.4037 97.1471 37.8835 97.8773 39.4278 98.4443C38.94 97.8902 38.5185 97.3104 38.1633 96.7049C36.8234 94.426 36.1534 92.0554 36.1534 89.5875C36.1534 85.7784 37.462 82.5253 40.083 79.8317C42.6985 77.1382 45.8294 75.7933 49.4645 75.7933C53.0997 75.7933 56.1956 77.1382 58.754 79.8317C59.77 80.9106 60.5707 82.05 61.1523 83.2519C61.2462 83.5583 61.3327 83.8647 61.4118 84.1729C61.964 86.2995 62.0873 88.494 61.7818 90.6187C62.7481 88.9307 63.6095 87.1601 64.4267 85.4867C64.6292 85.0665 64.8482 84.6427 65.0728 84.2298C65.0985 84.1803 65.1243 84.1326 65.1519 84.0849C65.4335 83.5748 65.728 83.072 66.0372 82.5785C65.2403 80.6354 64.0807 78.8391 62.5548 77.1914Z" fill="url(#paint17_linear_54_280)"/>
<path d="M67.3805 99.6865C66.3351 101.075 65.2418 102.286 64.0785 103.349C63.6368 103.754 63.1803 104.14 62.7109 104.505V107.457H67.3548C67.3805 107.334 67.3897 104.745 67.3805 99.6865Z" fill="url(#paint18_linear_54_280)"/>
<path d="M115.387 73.1807L105.763 81.5493C106.843 82.6044 107.9 83.6851 108.903 84.7658C108.91 84.7731 108.916 84.7805 108.923 84.7878L121.873 73.1807H115.387Z" fill="url(#paint19_linear_54_280)"/>
<path d="M122 106.831H115.322C111.46 100.657 106.754 93.7892 103.242 89.8755C103.01 89.6168 102.782 89.3691 102.559 89.1361C102.246 88.8077 101.932 88.4811 101.611 88.1581V80.4243C101.725 80.5271 101.836 80.628 101.946 80.7289L102.044 80.8188C102.712 81.4298 103.376 82.05 104.026 82.6812C104.094 82.7472 104.162 82.8133 104.23 82.8793C105.32 83.938 106.382 85.0224 107.417 86.1362C108.179 86.9545 108.924 87.7857 109.655 88.6334C112.979 92.481 115.997 96.6241 118.69 101.033C119.13 101.749 120.558 104.27 122 106.831Z" fill="url(#paint20_linear_54_280)"/>
<path d="M99.5875 60.0063H95.1572V107.27H99.5875V60.0063Z" fill="url(#paint21_linear_54_280)"/>
<path d="M93.1321 73.9584V80.5895C90.6584 78.7657 87.9674 77.3235 85.5121 77.4263C85.4311 77.4299 85.3519 77.4336 85.271 77.4391H85.2673C85.028 77.4556 84.7887 77.4795 84.5494 77.5143C83.0199 77.718 81.4904 78.2666 79.9848 79.1473C78.4368 80.0501 76.9625 81.2317 75.6244 82.6152C75.5213 82.7198 75.4201 82.8262 75.3189 82.9344C73.7194 84.6463 72.3353 86.65 71.2825 88.8096C70.1155 91.204 68.8805 93.7361 67.3749 96.1269C66.0699 98.2058 64.5588 100.175 62.7108 101.861C61.6764 102.808 60.5334 103.664 59.2634 104.4C56.0184 106.279 52.2931 107.257 48.4462 107.429C48.0339 107.448 47.6198 107.457 47.2038 107.457H41.2606C40.1415 107.457 39.0426 107.371 37.9696 107.207H19.79V60.0063H25.1314V101.874H46.602C47.0124 101.886 47.4229 101.886 47.8315 101.874C50.9255 101.787 53.9054 101.048 56.451 99.5727C56.8191 99.358 57.1762 99.1268 57.5203 98.8773C57.8977 98.6076 58.2621 98.3177 58.6137 98.0094C58.6137 98.0094 58.6143 98.0088 58.6155 98.0076C62.0151 95.0407 64.244 90.4756 66.2466 86.3692C66.4435 85.9637 66.6497 85.5637 66.865 85.1693C66.8834 85.1326 66.9037 85.0959 66.9239 85.0592C69.4179 80.529 73.0071 76.7529 77.1521 74.3309C79.7731 72.8006 82.5064 71.9658 85.2765 71.8484C85.8655 71.8245 86.4526 71.8447 87.0306 71.9089C88.5417 72.0685 90.0178 72.5052 91.4351 73.1254C92.0112 73.3749 92.5763 73.6557 93.1321 73.9584Z" fill="url(#paint22_linear_54_280)"/>
</g>
<defs>
<linearGradient id="paint0_linear_54_280" x1="85.2645" y1="45.7425" x2="82.4408" y2="30.7239" gradientUnits="userSpaceOnUse">
<stop stop-color="#00FFFF"/>
<stop offset="0.14" stop-color="#00FAFF"/>
<stop offset="0.31" stop-color="#00ECFF"/>
<stop offset="0.48" stop-color="#00D5FF"/>
<stop offset="0.66" stop-color="#00B6FF"/>
<stop offset="0.84" stop-color="#008DFF"/>
<stop offset="1" stop-color="#0065FF"/>
</linearGradient>
<linearGradient id="paint1_linear_54_280" x1="97.6704" y1="31.306" x2="54.6292" y2="50.5629" gradientUnits="userSpaceOnUse">
<stop stop-color="#00FFFF"/>
<stop offset="0.14" stop-color="#00FAFF"/>
<stop offset="0.31" stop-color="#00ECFF"/>
<stop offset="0.48" stop-color="#00D5FF"/>
<stop offset="0.66" stop-color="#00B6FF"/>
<stop offset="0.84" stop-color="#008DFF"/>
<stop offset="1" stop-color="#0065FF"/>
</linearGradient>
<linearGradient id="paint2_linear_54_280" x1="97.6704" y1="31.306" x2="54.6292" y2="50.5629" gradientUnits="userSpaceOnUse">
<stop stop-color="#00FFFF"/>
<stop offset="0.14" stop-color="#00FAFF"/>
<stop offset="0.31" stop-color="#00ECFF"/>
<stop offset="0.48" stop-color="#00D5FF"/>
<stop offset="0.66" stop-color="#00B6FF"/>
<stop offset="0.84" stop-color="#008DFF"/>
<stop offset="1" stop-color="#0065FF"/>
</linearGradient>
<linearGradient id="paint3_linear_54_280" x1="48.4892" y1="54.5582" x2="35.7225" y2="60.2706" gradientUnits="userSpaceOnUse">
<stop stop-color="#00FFFF"/>
<stop offset="0.14" stop-color="#00FAFF"/>
<stop offset="0.31" stop-color="#00ECFF"/>
<stop offset="0.48" stop-color="#00D5FF"/>
<stop offset="0.66" stop-color="#00B6FF"/>
<stop offset="0.84" stop-color="#008DFF"/>
<stop offset="1" stop-color="#0065FF"/>
</linearGradient>
<linearGradient id="paint4_linear_54_280" x1="92.9353" y1="35.2866" x2="49.7133" y2="54.6245" gradientUnits="userSpaceOnUse">
<stop stop-color="#00FFFF"/>
<stop offset="0.14" stop-color="#00FAFF"/>
<stop offset="0.31" stop-color="#00ECFF"/>
<stop offset="0.48" stop-color="#00D5FF"/>
<stop offset="0.66" stop-color="#00B6FF"/>
<stop offset="0.84" stop-color="#008DFF"/>
<stop offset="1" stop-color="#0065FF"/>
</linearGradient>
<linearGradient id="paint5_linear_54_280" x1="92.9353" y1="35.2866" x2="49.7133" y2="54.6245" gradientUnits="userSpaceOnUse">
<stop stop-color="#00FFFF"/>
<stop offset="0.14" stop-color="#00FAFF"/>
<stop offset="0.31" stop-color="#00ECFF"/>
<stop offset="0.48" stop-color="#00D5FF"/>
<stop offset="0.66" stop-color="#00B6FF"/>
<stop offset="0.84" stop-color="#008DFF"/>
<stop offset="1" stop-color="#0065FF"/>
</linearGradient>
<linearGradient id="paint6_linear_54_280" x1="52.5457" y1="64.9346" x2="45.8634" y2="-4.22869" gradientUnits="userSpaceOnUse">
<stop stop-color="#00FFFF"/>
<stop offset="0.14" stop-color="#00FAFF"/>
<stop offset="0.31" stop-color="#00ECFF"/>
<stop offset="0.48" stop-color="#00D5FF"/>
<stop offset="0.66" stop-color="#00B6FF"/>
<stop offset="0.84" stop-color="#008DFF"/>
<stop offset="1" stop-color="#0065FF"/>
</linearGradient>
<linearGradient id="paint7_linear_54_280" x1="53.0403" y1="64.8867" x2="46.358" y2="-4.27657" gradientUnits="userSpaceOnUse">
<stop stop-color="#00FFFF"/>
<stop offset="0.14" stop-color="#00FAFF"/>
<stop offset="0.31" stop-color="#00ECFF"/>
<stop offset="0.48" stop-color="#00D5FF"/>
<stop offset="0.66" stop-color="#00B6FF"/>
<stop offset="0.84" stop-color="#008DFF"/>
<stop offset="1" stop-color="#0065FF"/>
</linearGradient>
<linearGradient id="paint8_linear_54_280" x1="59.3977" y1="64.2725" x2="52.7154" y2="-4.89084" gradientUnits="userSpaceOnUse">
<stop stop-color="#00FFFF"/>
<stop offset="0.14" stop-color="#00FAFF"/>
<stop offset="0.31" stop-color="#00ECFF"/>
<stop offset="0.48" stop-color="#00D5FF"/>
<stop offset="0.66" stop-color="#00B6FF"/>
<stop offset="0.84" stop-color="#008DFF"/>
<stop offset="1" stop-color="#0065FF"/>
</linearGradient>
<linearGradient id="paint9_linear_54_280" x1="83.1767" y1="37.9137" x2="68.1247" y2="14.8035" gradientUnits="userSpaceOnUse">
<stop stop-color="#00FFFF"/>
<stop offset="0.14" stop-color="#00FAFF"/>
<stop offset="0.31" stop-color="#00ECFF"/>
<stop offset="0.48" stop-color="#00D5FF"/>
<stop offset="0.66" stop-color="#00B6FF"/>
<stop offset="0.84" stop-color="#008DFF"/>
<stop offset="1" stop-color="#0065FF"/>
</linearGradient>
<linearGradient id="paint10_linear_54_280" x1="91.9188" y1="15.3817" x2="44.2346" y2="36.7165" gradientUnits="userSpaceOnUse">
<stop stop-color="#00FFFF"/>
<stop offset="0.14" stop-color="#00FAFF"/>
<stop offset="0.31" stop-color="#00ECFF"/>
<stop offset="0.48" stop-color="#00D5FF"/>
<stop offset="0.66" stop-color="#00B6FF"/>
<stop offset="0.84" stop-color="#008DFF"/>
<stop offset="1" stop-color="#0065FF"/>
</linearGradient>
<linearGradient id="paint11_linear_54_280" x1="78.1222" y1="81.0227" x2="78.1222" y2="107.274" gradientUnits="userSpaceOnUse">
<stop stop-color="#00FFFF"/>
<stop offset="0.14" stop-color="#00FAFF"/>
<stop offset="0.31" stop-color="#00ECFF"/>
<stop offset="0.48" stop-color="#00D5FF"/>
<stop offset="0.66" stop-color="#00B6FF"/>
<stop offset="0.84" stop-color="#008DFF"/>
<stop offset="1" stop-color="#0065FF"/>
</linearGradient>
<linearGradient id="paint12_linear_54_280" x1="41.7483" y1="62.7806" x2="-17.6605" y2="62.7806" gradientUnits="userSpaceOnUse">
<stop stop-color="#00FFFF"/>
<stop offset="0.14" stop-color="#00FAFF"/>
<stop offset="0.31" stop-color="#00ECFF"/>
<stop offset="0.48" stop-color="#00D5FF"/>
<stop offset="0.66" stop-color="#00B6FF"/>
<stop offset="0.84" stop-color="#008DFF"/>
<stop offset="1" stop-color="#0065FF"/>
</linearGradient>
<linearGradient id="paint13_linear_54_280" x1="41.7488" y1="62.7806" x2="-17.66" y2="62.7806" gradientUnits="userSpaceOnUse">
<stop stop-color="#00FFFF"/>
<stop offset="0.14" stop-color="#00FAFF"/>
<stop offset="0.31" stop-color="#00ECFF"/>
<stop offset="0.48" stop-color="#00D5FF"/>
<stop offset="0.66" stop-color="#00B6FF"/>
<stop offset="0.84" stop-color="#008DFF"/>
<stop offset="1" stop-color="#0065FF"/>
</linearGradient>
<linearGradient id="paint14_linear_54_280" x1="41.7485" y1="62.7806" x2="-17.6603" y2="62.7806" gradientUnits="userSpaceOnUse">
<stop stop-color="#00FFFF"/>
<stop offset="0.14" stop-color="#00FAFF"/>
<stop offset="0.31" stop-color="#00ECFF"/>
<stop offset="0.48" stop-color="#00D5FF"/>
<stop offset="0.66" stop-color="#00B6FF"/>
<stop offset="0.84" stop-color="#008DFF"/>
<stop offset="1" stop-color="#0065FF"/>
</linearGradient>
<linearGradient id="paint15_linear_54_280" x1="47.2163" y1="52.7495" x2="47.2163" y2="111.972" gradientUnits="userSpaceOnUse">
<stop stop-opacity="0"/>
<stop offset="0.04" stop-color="#000404" stop-opacity="0.02"/>
<stop offset="0.09" stop-color="#001212" stop-opacity="0.07"/>
<stop offset="0.14" stop-color="#002929" stop-opacity="0.16"/>
<stop offset="0.19" stop-color="#004848" stop-opacity="0.29"/>
<stop offset="0.25" stop-color="#007171" stop-opacity="0.45"/>
<stop offset="0.3" stop-color="#00A3A3" stop-opacity="0.64"/>
<stop offset="0.36" stop-color="#00DDDD" stop-opacity="0.87"/>
<stop offset="0.39" stop-color="#00FFFF"/>
<stop offset="0.47" stop-color="#00FAFF"/>
<stop offset="0.57" stop-color="#00ECFF"/>
<stop offset="0.68" stop-color="#00D5FF"/>
<stop offset="0.79" stop-color="#00B6FF"/>
<stop offset="0.9" stop-color="#008DFF"/>
<stop offset="1" stop-color="#0065FF"/>
</linearGradient>
<linearGradient id="paint16_linear_54_280" x1="47.8262" y1="-0.0173306" x2="47.8262" y2="111.973" gradientUnits="userSpaceOnUse">
<stop stop-opacity="0"/>
<stop offset="0.04" stop-color="#000404" stop-opacity="0.02"/>
<stop offset="0.09" stop-color="#001212" stop-opacity="0.07"/>
<stop offset="0.14" stop-color="#002929" stop-opacity="0.16"/>
<stop offset="0.19" stop-color="#004848" stop-opacity="0.29"/>
<stop offset="0.25" stop-color="#007171" stop-opacity="0.45"/>
<stop offset="0.3" stop-color="#00A3A3" stop-opacity="0.64"/>
<stop offset="0.36" stop-color="#00DDDD" stop-opacity="0.87"/>
<stop offset="0.39" stop-color="#00FFFF"/>
<stop offset="0.47" stop-color="#00FAFF"/>
<stop offset="0.57" stop-color="#00ECFF"/>
<stop offset="0.68" stop-color="#00D5FF"/>
<stop offset="0.79" stop-color="#00B6FF"/>
<stop offset="0.9" stop-color="#008DFF"/>
<stop offset="1" stop-color="#0065FF"/>
</linearGradient>
<linearGradient id="paint17_linear_54_280" x1="48.8516" y1="52.7496" x2="48.8516" y2="111.973" gradientUnits="userSpaceOnUse">
<stop stop-color="#00FFFF"/>
<stop offset="0.14" stop-color="#00FAFF"/>
<stop offset="0.31" stop-color="#00ECFF"/>
<stop offset="0.48" stop-color="#00D5FF"/>
<stop offset="0.66" stop-color="#00B6FF"/>
<stop offset="0.84" stop-color="#008DFF"/>
<stop offset="1" stop-color="#0065FF"/>
</linearGradient>
<linearGradient id="paint18_linear_54_280" x1="65.0467" y1="52.7496" x2="65.0467" y2="111.973" gradientUnits="userSpaceOnUse">
<stop stop-color="#00FFFF"/>
<stop offset="0.14" stop-color="#00FAFF"/>
<stop offset="0.31" stop-color="#00ECFF"/>
<stop offset="0.48" stop-color="#00D5FF"/>
<stop offset="0.66" stop-color="#00B6FF"/>
<stop offset="0.84" stop-color="#008DFF"/>
<stop offset="1" stop-color="#0065FF"/>
</linearGradient>
<linearGradient id="paint19_linear_54_280" x1="113.819" y1="52.7498" x2="113.819" y2="111.973" gradientUnits="userSpaceOnUse">
<stop stop-color="#00FFFF"/>
<stop offset="0.14" stop-color="#00FAFF"/>
<stop offset="0.31" stop-color="#00ECFF"/>
<stop offset="0.48" stop-color="#00D5FF"/>
<stop offset="0.66" stop-color="#00B6FF"/>
<stop offset="0.84" stop-color="#008DFF"/>
<stop offset="1" stop-color="#0065FF"/>
</linearGradient>
<linearGradient id="paint20_linear_54_280" x1="111.805" y1="52.7495" x2="111.805" y2="111.972" gradientUnits="userSpaceOnUse">
<stop stop-color="#00FFFF"/>
<stop offset="0.14" stop-color="#00FAFF"/>
<stop offset="0.31" stop-color="#00ECFF"/>
<stop offset="0.48" stop-color="#00D5FF"/>
<stop offset="0.66" stop-color="#00B6FF"/>
<stop offset="0.84" stop-color="#008DFF"/>
<stop offset="1" stop-color="#0065FF"/>
</linearGradient>
<linearGradient id="paint21_linear_54_280" x1="97.3715" y1="52.7496" x2="97.3715" y2="111.973" gradientUnits="userSpaceOnUse">
<stop stop-color="#00FFFF"/>
<stop offset="0.14" stop-color="#00FAFF"/>
<stop offset="0.31" stop-color="#00ECFF"/>
<stop offset="0.48" stop-color="#00D5FF"/>
<stop offset="0.66" stop-color="#00B6FF"/>
<stop offset="0.84" stop-color="#008DFF"/>
<stop offset="1" stop-color="#0065FF"/>
</linearGradient>
<linearGradient id="paint22_linear_54_280" x1="56.462" y1="52.7496" x2="56.462" y2="111.973" gradientUnits="userSpaceOnUse">
<stop stop-color="#00FFFF"/>
<stop offset="0.14" stop-color="#00FAFF"/>
<stop offset="0.31" stop-color="#00ECFF"/>
<stop offset="0.48" stop-color="#00D5FF"/>
<stop offset="0.66" stop-color="#00B6FF"/>
<stop offset="0.84" stop-color="#008DFF"/>
<stop offset="1" stop-color="#0065FF"/>
</linearGradient>
<clipPath id="clip0_54_280">
<rect width="122" height="119" fill="white"/>
</clipPath>
</defs>
</svg>
