<svg width="207" height="303" viewBox="0 0 207 303" fill="none" xmlns="http://www.w3.org/2000/svg">
<path d="M41.5228 276.518C30.9797 279.153 16.4513 281.839 0.484375 282.033C10.0628 273.535 27.6036 257.25 42.2251 239.643C43.689 251.793 43.1897 264.316 41.5143 276.518H41.5228Z" fill="url(#paint0_linear_18_9)"/>
<path d="M203.18 146.864C201.133 151.312 198.34 155.159 195.024 158.294C192.138 161.031 188.872 163.225 185.386 164.844C183.364 165.411 181.291 165.793 179.201 165.987C178.608 166.047 178.024 166.081 177.432 166.106C177.06 166.513 176.611 167.013 176.095 167.648C175.68 168.148 175.215 168.724 174.699 169.402C158.639 190.559 152.073 216.986 135.065 237.737C127.154 247.421 118.142 256.039 108.496 263.944C97.5891 272.459 86.0052 280.161 74.4044 287.516C69.2683 290.778 64.1237 294.125 58.8098 297.082C56.7452 298.234 55.7214 299.166 50.6022 302.064C50.7798 301.555 50.9575 301.047 51.1268 300.539C53.5383 293.608 55.5352 286.524 57.1091 279.365C63.9883 248.209 65.156 212.631 46.3798 185.23C40.8037 177.087 34.4406 169.402 29.846 160.624C23.8976 149.279 20.0137 136.857 19.413 124.012C19.0745 116.903 19.5145 109.761 20.5637 102.728C20.6822 101.915 20.8176 101.093 20.953 100.279C21.5622 96.6868 22.3406 93.1281 23.2545 89.6118C25.6237 103.474 30.4806 117.234 37.5291 129.613C42.716 138.73 49.096 147.11 56.5591 154.244C55.5691 152.778 54.596 151.287 53.6652 149.77C48.6222 141.602 44.4083 132.748 41.1591 123.614C41.5399 124.309 41.9206 125.004 42.3099 125.698C47.5052 134.841 53.9022 143.237 61.3737 150.406C51.4991 135.84 44.4506 118.717 40.7952 101.55C36.6152 81.9099 36.6999 58.7531 48.9437 36.6301C50.3229 34.1391 51.8629 31.6565 53.5722 29.1824C56.6691 24.7086 60.316 20.2942 64.5722 15.9899C64.1068 16.6847 63.5568 17.5659 62.9475 18.5996C57.4391 28.047 47.4291 51.2291 58.996 81.537C61.4414 87.9511 64.8514 94.6787 69.4883 101.669C69.446 101.559 69.0483 100.508 68.4645 98.6864C67.4237 95.3989 65.7821 89.5864 64.5552 82.2064C64.5214 82.0369 64.496 81.876 64.4706 81.715C64.2675 80.4949 64.0898 79.2409 63.9206 77.953C66.3575 84.2992 69.7421 90.9421 74.3114 97.8391C74.1421 97.3985 68.7352 83.13 67.8637 64.2267C67.1952 49.8311 69.1668 32.7495 78.0852 17.0406C79.2275 15.0325 80.4714 13.0498 81.8506 11.101C84.5244 7.29661 87.6721 3.61085 91.3444 0.103027C87.1475 5.81383 71.6291 34.0543 110.569 101.042C127.128 129.528 136.724 153.693 138.179 174.427C138.847 183.916 137.815 192.686 134.964 200.811C139.727 192.872 142.427 184.264 143.188 174.901C143.188 174.901 143.188 174.901 143.188 174.884C144.872 154.261 137.189 129.952 121.569 100.966C123.422 100.11 125.258 99.3219 127.061 98.6101C161.702 86.8242 186.444 98.7796 187.679 99.3473C198.214 104.202 204.526 114.955 206.176 126.012C206.751 128.952 206.794 131.731 206.421 134.366C206.074 138.56 205.034 142.788 203.164 146.864H203.18Z" fill="url(#paint1_linear_18_9)"/>
<defs>
<linearGradient id="paint0_linear_18_9" x1="257.185" y1="161.924" x2="58.1886" y2="250.558" gradientUnits="userSpaceOnUse">
<stop stop-color="#00FFFF"/>
<stop offset="0.14" stop-color="#00FAFF"/>
<stop offset="0.31" stop-color="#00ECFF"/>
<stop offset="0.48" stop-color="#00D5FF"/>
<stop offset="0.66" stop-color="#00B6FF"/>
<stop offset="0.84" stop-color="#008DFF"/>
<stop offset="1" stop-color="#0065FF"/>
</linearGradient>
<linearGradient id="paint1_linear_18_9" x1="252.508" y1="70.006" x2="32.9683" y2="167.793" gradientUnits="userSpaceOnUse">
<stop stop-color="#00FFFF"/>
<stop offset="0.14" stop-color="#00FAFF"/>
<stop offset="0.31" stop-color="#00ECFF"/>
<stop offset="0.48" stop-color="#00D5FF"/>
<stop offset="0.66" stop-color="#00B6FF"/>
<stop offset="0.84" stop-color="#008DFF"/>
<stop offset="1" stop-color="#0065FF"/>
</linearGradient>
</defs>
</svg>
