<svg width="207" height="303" viewBox="0 0 207 303" fill="none" xmlns="http://www.w3.org/2000/svg">
<path d="M165.477 276.518C176.02 279.153 190.549 281.839 206.516 282.033C196.937 273.535 179.396 257.25 164.775 239.643C163.311 251.793 163.81 264.316 165.486 276.518H165.477Z" fill="url(#paint0_linear_18_8)"/>
<path d="M3.81952 146.864C5.8672 151.312 8.65952 155.159 11.9764 158.294C14.8618 161.031 18.128 163.225 21.6141 164.844C23.6364 165.411 25.7095 165.793 27.7995 165.987C28.3918 166.047 28.9756 166.081 29.5679 166.106C29.9402 166.513 30.3887 167.013 30.9049 167.648C31.3195 168.148 31.7849 168.724 32.301 169.402C48.361 190.559 54.9272 216.986 71.9348 237.737C79.8464 247.421 88.8579 256.039 98.504 263.944C109.411 272.459 120.995 280.161 132.596 287.516C137.732 290.778 142.876 294.125 148.19 297.082C150.255 298.234 151.279 299.166 156.398 302.064C156.22 301.555 156.042 301.047 155.873 300.539C153.462 293.608 151.465 286.524 149.891 279.365C143.012 248.209 141.844 212.631 160.62 185.23C166.196 177.087 172.559 169.402 177.154 160.624C183.102 149.279 186.986 136.857 187.587 124.012C187.926 116.903 187.486 109.761 186.436 102.728C186.318 101.915 186.182 101.093 186.047 100.279C185.438 96.6868 184.659 93.1281 183.746 89.6118C181.376 103.474 176.519 117.234 169.471 129.613C164.284 138.73 157.904 147.11 150.441 154.244C151.431 152.778 152.404 151.287 153.335 149.77C158.378 141.602 162.592 132.748 165.841 123.614C165.46 124.309 165.079 125.004 164.69 125.698C159.495 134.841 153.098 143.237 145.626 150.406C155.501 135.84 162.549 118.717 166.205 101.55C170.385 81.9099 170.3 58.7531 158.056 36.6301C156.677 34.1391 155.137 31.6565 153.428 29.1824C150.331 24.7086 146.684 20.2942 142.428 15.9899C142.893 16.6847 143.443 17.5659 144.052 18.5996C149.561 28.047 159.571 51.2291 148.004 81.537C145.559 87.9511 142.149 94.6787 137.512 101.669C137.554 101.559 137.952 100.508 138.536 98.6864C139.576 95.3989 141.218 89.5864 142.445 82.2064C142.479 82.0369 142.504 81.876 142.529 81.715C142.732 80.4949 142.91 79.2409 143.079 77.953C140.642 84.2992 137.258 90.9421 132.689 97.8391C132.858 97.3985 138.265 83.13 139.136 64.2267C139.805 49.8311 137.833 32.7495 128.915 17.0406C127.772 15.0325 126.529 13.0498 125.149 11.101C122.476 7.29661 119.328 3.61085 115.656 0.103027C119.852 5.81383 135.371 34.0543 96.431 101.042C79.8718 129.528 70.2764 153.693 68.821 174.427C68.1525 183.916 69.1848 192.686 72.0364 200.811C67.2725 192.872 64.5733 184.264 63.8118 174.901C63.8118 174.901 63.8118 174.901 63.8118 174.884C62.1279 154.261 69.811 129.952 85.431 100.966C83.5779 100.11 81.7417 99.3219 79.9394 98.6101C45.2979 86.8242 20.5564 98.7796 19.321 99.3473C8.78644 104.202 2.47412 114.955 0.824127 126.012C0.248734 128.952 0.206451 131.731 0.578751 134.366C0.925674 138.56 1.96646 142.788 3.83646 146.864H3.81952Z" fill="url(#paint1_linear_18_8)"/>
<defs>
<linearGradient id="paint0_linear_18_8" x1="-50.1846" y1="161.924" x2="148.811" y2="250.558" gradientUnits="userSpaceOnUse">
<stop stop-color="#00FFFF"/>
<stop offset="0.14" stop-color="#00FAFF"/>
<stop offset="0.31" stop-color="#00ECFF"/>
<stop offset="0.48" stop-color="#00D5FF"/>
<stop offset="0.66" stop-color="#00B6FF"/>
<stop offset="0.84" stop-color="#008DFF"/>
<stop offset="1" stop-color="#0065FF"/>
</linearGradient>
<linearGradient id="paint1_linear_18_8" x1="-45.508" y1="70.006" x2="174.032" y2="167.793" gradientUnits="userSpaceOnUse">
<stop stop-color="#00FFFF"/>
<stop offset="0.14" stop-color="#00FAFF"/>
<stop offset="0.31" stop-color="#00ECFF"/>
<stop offset="0.48" stop-color="#00D5FF"/>
<stop offset="0.66" stop-color="#00B6FF"/>
<stop offset="0.84" stop-color="#008DFF"/>
<stop offset="1" stop-color="#0065FF"/>
</linearGradient>
</defs>
</svg>
