<svg width="14" height="14" viewBox="0 0 14 14" fill="none" xmlns="http://www.w3.org/2000/svg">
<g clip-path="url(#clip0_54_229)">
<path d="M9.51165 0.766726H3.51801C2.881 0.766726 2.29467 0.925978 1.759 1.24448C1.22334 1.56298 0.796257 1.99007 0.477754 2.52573C0.159251 3.06139 0 3.64773 0 4.28473V10.2784C0 10.9154 0.159251 11.5017 0.477754 12.0374C0.796257 12.573 1.22334 13.0001 1.759 13.3186C2.29467 13.6371 2.881 13.7964 3.51801 13.7964H9.51165C10.1487 13.7964 10.735 13.6371 11.2707 13.3186C11.8063 13.0001 12.2334 12.573 12.5519 12.0374C12.8704 11.5017 13.0297 10.9154 13.0297 10.2784V4.28473C13.0297 3.64773 12.8704 3.06139 12.5519 2.52573C12.2334 1.99007 11.8063 1.56298 11.2707 1.24448C10.735 0.925978 10.1487 0.766726 9.51165 0.766726ZM12.2479 10.2784C12.2479 10.7706 12.1248 11.2266 11.8787 11.6465C11.6326 12.0663 11.2996 12.3993 10.8798 12.6454C10.4599 12.8915 10.0039 13.0146 9.51165 13.0146H3.51801C3.02578 13.0146 2.56974 12.8915 2.14989 12.6454C1.73005 12.3993 1.39707 12.0663 1.15095 11.6465C0.904838 11.2266 0.78178 10.7706 0.78178 10.2784V4.28473C0.78178 3.7925 0.904838 3.33646 1.15095 2.91662C1.39707 2.49678 1.73005 2.1638 2.14989 1.91768C2.56974 1.67156 3.02578 1.54851 3.51801 1.54851H9.51165C10.0039 1.54851 10.4599 1.67156 10.8798 1.91768C11.2996 2.1638 11.6326 2.49678 11.8787 2.91662C12.1248 3.33646 12.2479 3.7925 12.2479 4.28473V10.2784ZM6.51483 3.72012C5.87782 3.72012 5.28425 3.87937 4.73411 4.19787C4.18397 4.51637 3.74965 4.9507 3.43114 5.50084C3.11264 6.05098 2.95339 6.64455 2.95339 7.28156C2.95339 7.91856 3.11264 8.51214 3.43114 9.06228C3.74965 9.61242 4.18397 10.0467 4.73411 10.3652C5.28425 10.6837 5.87782 10.843 6.51483 10.843C7.15184 10.843 7.74541 10.6837 8.29555 10.3652C8.84569 10.0467 9.28001 9.61242 9.59852 9.06228C9.91702 8.51214 10.0763 7.91856 10.0763 7.28156C10.0763 6.64455 9.91702 6.05098 9.59852 5.50084C9.28001 4.9507 8.84569 4.51637 8.29555 4.19787C7.74541 3.87937 7.15184 3.72012 6.51483 3.72012ZM6.51483 10.0612C6.0226 10.0612 5.55932 9.93816 5.125 9.69204C4.69068 9.44593 4.35046 9.10571 4.10434 8.67139C3.85823 8.23706 3.73517 7.77379 3.73517 7.28156C3.73517 6.78932 3.85823 6.32605 4.10434 5.89173C4.35046 5.4574 4.69068 5.11718 5.125 4.87107C5.55932 4.62495 6.0226 4.5019 6.51483 4.5019C7.00706 4.5019 7.47034 4.62495 7.90466 4.87107C8.33898 5.11718 8.6792 5.4574 8.92532 5.89173C9.17143 6.32605 9.29449 6.78932 9.29449 7.28156C9.29449 7.77379 9.17143 8.23706 8.92532 8.67139C8.6792 9.10571 8.33898 9.44593 7.90466 9.69204C7.47034 9.93816 7.00706 10.0612 6.51483 10.0612ZM10.1631 2.46058C9.87359 2.46058 9.62747 2.56192 9.42479 2.76461C9.2221 2.96729 9.12076 3.21341 9.12076 3.50295C9.12076 3.7925 9.2221 4.03862 9.42479 4.2413C9.62747 4.44399 9.87359 4.54533 10.1631 4.54533C10.4527 4.54533 10.6988 4.44399 10.9015 4.2413C11.1042 4.03862 11.2055 3.7925 11.2055 3.50295C11.2055 3.21341 11.1042 2.96729 10.9015 2.76461C10.6988 2.56192 10.4527 2.46058 10.1631 2.46058ZM10.1631 3.80698C10.0763 3.80698 10.0039 3.77803 9.94597 3.72012C9.88806 3.66221 9.85911 3.58982 9.85911 3.50295C9.85911 3.41609 9.88806 3.3437 9.94597 3.28579C10.0039 3.22788 10.0763 3.19893 10.1631 3.19893C10.25 3.19893 10.3224 3.22788 10.3803 3.28579C10.4382 3.3437 10.4672 3.41609 10.4672 3.50295C10.4672 3.58982 10.4382 3.66221 10.3803 3.72012C10.3224 3.77803 10.25 3.80698 10.1631 3.80698Z" fill="white"/>
</g>
<defs>
<clipPath id="clip0_54_229">
<rect width="13.0297" height="13.0297" fill="white" transform="matrix(1 0 0 -1 0 13.7964)"/>
</clipPath>
</defs>
</svg>
