<svg width="23" height="23" viewBox="0 0 23 23" fill="none" xmlns="http://www.w3.org/2000/svg">
<g clip-path="url(#clip0_264_49)">
<path d="M16.4714 0.436441H6.09216C4.98905 0.436441 3.97369 0.712219 3.04608 1.26377C2.11847 1.81533 1.37888 2.55491 0.82733 3.48252C0.275777 4.41014 0 5.4255 0 6.5286V16.9078C0 18.0109 0.275777 19.0263 0.82733 19.9539C1.37888 20.8815 2.11847 21.6211 3.04608 22.1727C3.97369 22.7242 4.98905 23 6.09216 23H16.4714C17.5745 23 18.5899 22.7242 19.5175 22.1727C20.4451 21.6211 21.1847 20.8815 21.7362 19.9539C22.2878 19.0263 22.5636 18.0109 22.5636 16.9078V6.5286C22.5636 5.4255 22.2878 4.41014 21.7362 3.48252C21.1847 2.55491 20.4451 1.81533 19.5175 1.26377C18.5899 0.712219 17.5745 0.436441 16.4714 0.436441ZM21.2097 16.9078C21.2097 17.7602 20.9966 18.55 20.5704 19.277C20.1442 20.0041 19.5676 20.5807 18.8406 21.0069C18.1135 21.4331 17.3238 21.6462 16.4714 21.6462H6.09216C5.23976 21.6462 4.45004 21.4331 3.72299 21.0069C2.99594 20.5807 2.41931 20.0041 1.99311 19.277C1.56691 18.55 1.35381 17.7602 1.35381 16.9078V6.5286C1.35381 5.6762 1.56691 4.88648 1.99311 4.15943C2.41931 3.43238 2.99594 2.85576 3.72299 2.42956C4.45004 2.00336 5.23976 1.79025 6.09216 1.79025H16.4714C17.3238 1.79025 18.1135 2.00336 18.8406 2.42956C19.5676 2.85576 20.1442 3.43238 20.5704 4.15943C20.9966 4.88648 21.2097 5.6762 21.2097 6.5286V16.9078ZM11.2818 5.55085C10.1787 5.55085 9.15078 5.82663 8.19809 6.37818C7.24541 6.92973 6.49329 7.68185 5.94174 8.63453C5.39018 9.58722 5.11441 10.6151 5.11441 11.7182C5.11441 12.8213 5.39018 13.8492 5.94174 14.8019C6.49329 15.7546 7.24541 16.5067 8.19809 17.0583C9.15078 17.6098 10.1787 17.8856 11.2818 17.8856C12.3849 17.8856 13.4128 17.6098 14.3655 17.0583C15.3181 16.5067 16.0703 15.7546 16.6218 14.8019C17.1734 13.8492 17.4492 12.8213 17.4492 11.7182C17.4492 10.6151 17.1734 9.58722 16.6218 8.63453C16.0703 7.68185 15.3181 6.92973 14.3655 6.37818C13.4128 5.82663 12.3849 5.55085 11.2818 5.55085ZM11.2818 16.5318C10.4294 16.5318 9.62712 16.3187 8.875 15.8925C8.12288 15.4663 7.53372 14.8771 7.10752 14.125C6.68132 13.3729 6.46822 12.5706 6.46822 11.7182C6.46822 10.8658 6.68132 10.0636 7.10752 9.31144C7.53372 8.55932 8.12288 7.97016 8.875 7.54396C9.62712 7.11776 10.4294 6.90466 11.2818 6.90466C12.1342 6.90466 12.9364 7.11776 13.6886 7.54396C14.4407 7.97016 15.0298 8.55932 15.456 9.31144C15.8822 10.0636 16.0953 10.8658 16.0953 11.7182C16.0953 12.5706 15.8822 13.3729 15.456 14.125C15.0298 14.8771 14.4407 15.4663 13.6886 15.8925C12.9364 16.3187 12.1342 16.5318 11.2818 16.5318ZM17.5996 3.36971C17.0982 3.36971 16.672 3.5452 16.321 3.89619C15.97 4.24718 15.7945 4.67338 15.7945 5.17479C15.7945 5.6762 15.97 6.1024 16.321 6.45339C16.672 6.80438 17.0982 6.97987 17.5996 6.97987C18.101 6.97987 18.5272 6.80438 18.8782 6.45339C19.2292 6.1024 19.4047 5.6762 19.4047 5.17479C19.4047 4.67338 19.2292 4.24718 18.8782 3.89619C18.5272 3.5452 18.101 3.36971 17.5996 3.36971ZM17.5996 5.70127C17.4492 5.70127 17.3238 5.65113 17.2235 5.55085C17.1232 5.45057 17.0731 5.32521 17.0731 5.17479C17.0731 5.02436 17.1232 4.89901 17.2235 4.79873C17.3238 4.69845 17.4492 4.64831 17.5996 4.64831C17.75 4.64831 17.8754 4.69845 17.9756 4.79873C18.0759 4.89901 18.1261 5.02436 18.1261 5.17479C18.1261 5.32521 18.0759 5.45057 17.9756 5.55085C17.8754 5.65113 17.75 5.70127 17.5996 5.70127Z" fill="url(#paint0_linear_264_49)"/>
</g>
<defs>
<linearGradient id="paint0_linear_264_49" x1="28.0847" y1="17.7766" x2="7.17546" y2="2.76683" gradientUnits="userSpaceOnUse">
<stop stop-color="#00FFFF"/>
<stop offset="0.14" stop-color="#00FAFF"/>
<stop offset="0.31" stop-color="#00ECFF"/>
<stop offset="0.48" stop-color="#00D5FF"/>
<stop offset="0.66" stop-color="#00B6FF"/>
<stop offset="0.84" stop-color="#008DFF"/>
<stop offset="1" stop-color="#0065FF"/>
</linearGradient>
<clipPath id="clip0_264_49">
<rect width="22.5636" height="22.5636" fill="white" transform="matrix(1 0 0 -1 0 23)"/>
</clipPath>
</defs>
</svg>
