<svg width="204" height="197" viewBox="0 0 204 197" fill="none" xmlns="http://www.w3.org/2000/svg">
<g filter="url(#filter0_d_5_2)">
<rect x="14" y="1" width="176" height="176" fill="#324E5F"/>
</g>
<path d="M129.111 63.686C128.938 63.3988 128.755 63.114 128.559 62.8361C128.943 60.8125 129.231 56.5861 125.823 53.8505C125.985 53.6621 126.14 53.4669 126.29 53.2647C131.378 56.9146 129.109 63.686 129.109 63.686H129.111Z" fill="url(#paint0_linear_5_2)"/>
<path d="M128.56 62.8361C126.683 60.1418 123.871 57.8885 122.196 56.6803C123.562 56.0119 124.805 55.0541 125.826 53.8482C129.232 56.5838 128.946 60.8125 128.562 62.8338L128.56 62.8361Z" fill="url(#paint1_linear_5_2)"/>
<path d="M128.56 62.8361C126.683 60.1418 123.871 57.8885 122.196 56.6803C123.562 56.0119 124.805 55.0541 125.826 53.8482C129.232 56.5838 128.946 60.8125 128.562 62.8338L128.56 62.8361Z" fill="url(#paint2_linear_5_2)"/>
<path d="M81.2358 86.1179C81.0625 86.1638 80.8823 86.2098 80.6974 86.2557C81.1549 82.9481 81.2889 79.5532 80.8915 76.2594C76.8988 81.0325 72.1066 85.4472 69.4933 87.751C69.1097 87.7556 68.7215 87.7533 68.3311 87.7487C68.5737 87.542 75.9399 81.4344 81.6632 74.5918C82.1231 78.3979 81.8712 82.3348 81.2358 86.1179Z" fill="url(#paint3_linear_5_2)"/>
<path d="M80.6996 86.2534C77.8206 86.9677 73.8533 87.6959 69.4932 87.7487C72.1088 85.4449 76.8987 81.0302 80.8914 76.2571C81.2911 79.5509 81.1548 82.9458 80.6973 86.2534H80.6996Z" fill="url(#paint4_linear_5_2)"/>
<path d="M80.6996 86.2534C77.8206 86.9677 73.8533 87.6959 69.4932 87.7487C72.1088 85.4449 76.8987 81.0302 80.8914 76.2571C81.2911 79.5509 81.1548 82.9458 80.6973 86.2534H80.6996Z" fill="url(#paint5_linear_5_2)"/>
<path d="M98.9901 82.8447C95.6374 85.5735 92.0052 87.9853 88.366 90.2799C86.9634 91.1619 85.5586 92.0692 84.1075 92.8732C83.5437 93.1833 83.2664 93.4359 81.8662 94.2238C82.5871 92.214 83.181 90.1559 83.6454 88.068C85.5239 79.6221 85.8428 69.9773 80.7155 62.549C79.1929 60.3416 77.4553 58.2606 76.2006 55.8809C74.5763 52.8053 73.5157 49.4357 73.3516 45.9559C73.25 43.8036 73.4071 41.6422 73.7722 39.5198C73.957 38.4541 74.1927 37.3952 74.4769 36.3501C74.6248 35.808 74.7842 35.2682 74.9552 34.733C75.0638 34.3954 75.452 33.7361 75.4173 33.3916C75.4913 34.1243 75.5906 34.8548 75.7177 35.5852C75.4682 36.5384 75.2556 37.5054 75.0892 38.477C74.7241 40.5994 74.5647 42.7608 74.6664 44.9108C74.8304 48.3929 75.8933 51.7602 77.5154 54.8358C78.77 57.2155 80.5053 59.2965 82.0303 61.5062C87.1575 68.9345 86.8386 78.5793 84.9601 87.0252C84.4957 89.1108 83.9019 91.1688 83.181 93.1787C84.5789 92.3931 84.8585 92.1404 85.4222 91.8281C86.871 91.0264 88.2782 90.1191 89.6807 89.2348C92.8485 87.2411 96.0117 85.1532 98.9901 82.8447Z" fill="url(#paint6_linear_5_2)"/>
<path d="M86.1275 52.0657C83.9324 49.9778 82.0793 47.504 80.6075 44.8051C80.0206 43.1789 79.5469 41.5228 79.1911 39.8644C78.0496 34.5401 78.0704 28.2625 81.4139 22.2652C82.6986 19.9637 84.4754 17.6989 86.8623 15.549C87.0356 15.3928 87.2042 15.2389 87.3845 15.085C87.3521 15.1263 87.2065 15.3124 86.9963 15.6294C85.1917 17.4417 83.7915 19.3183 82.7286 21.2247C79.3851 27.2243 79.362 33.5019 80.5035 38.8239C81.5017 43.4775 83.4287 48.1196 86.1229 52.068L86.1275 52.0657Z" fill="url(#paint7_linear_5_2)"/>
<path d="M89.6575 37.8109C88.4097 35.9412 87.4855 34.1404 86.82 32.42C86.7091 31.5816 86.6236 30.6812 86.5797 29.7418C86.3995 25.8393 86.9379 21.2063 89.3732 16.9524C90.5586 14.8806 92.1922 12.896 94.4127 11.132C94.4612 11.0929 94.5074 11.0516 94.5582 11.0148C94.5444 11.0286 94.4843 11.0929 94.3919 11.2101C94.3665 11.2422 94.3387 11.279 94.311 11.318C92.7929 12.7582 91.6053 14.3063 90.6903 15.9096C88.2549 20.1681 87.7165 24.7965 87.8991 28.7013C88.1371 33.8234 89.6135 37.6915 89.6598 37.8132L89.6575 37.8109Z" fill="url(#paint8_linear_5_2)"/>
<path d="M126.254 50.5888C125.695 51.7947 124.933 52.8375 124.027 53.6874C122.865 54.7807 121.474 55.564 119.988 55.9797C120.94 55.5433 121.832 54.9461 122.62 54.2042C123.525 53.3543 124.288 52.3115 124.847 51.1056C125.358 50.0008 125.642 48.8546 125.737 47.7176C125.841 47.0056 125.827 46.2499 125.67 45.4528C125.219 42.4553 123.495 39.5405 120.619 38.2244C120.281 38.0705 113.525 34.8272 104.065 38.0245C104.072 38.0199 104.082 38.0176 104.091 38.0131C114.267 33.9911 121.672 37.5445 122.028 37.7076C124.905 39.0237 126.628 41.9385 127.079 44.936C127.236 45.7331 127.248 46.4865 127.146 47.2008C127.051 48.3378 126.767 49.484 126.256 50.5888H126.254Z" fill="url(#paint9_linear_5_2)"/>
<path d="M124.844 51.1056C124.285 52.3115 123.523 53.3543 122.617 54.2042C121.829 54.9461 120.937 55.541 119.985 55.9797C119.433 56.1336 118.867 56.237 118.296 56.2898C118.134 56.3059 117.975 56.3151 117.813 56.322C117.711 56.4322 117.589 56.5677 117.448 56.74C117.335 56.8755 117.208 57.0317 117.067 57.2155C112.681 62.9509 110.888 70.1151 106.244 75.7403C104.083 78.3657 101.623 80.7017 98.9885 82.8447C96.0102 85.1532 92.8469 87.2411 89.6791 89.2348C88.2766 90.1192 86.8717 91.0265 85.4206 91.8281C84.8569 92.1405 84.5773 92.3931 83.1794 93.1787C83.2279 93.0409 83.2764 92.9031 83.3226 92.7652C83.9811 90.8863 84.5264 88.9661 84.9562 87.0252C86.8347 78.5793 87.1536 68.9345 82.0264 61.5062C80.5037 59.2988 78.7661 57.2155 77.5114 54.8359C75.8871 51.7603 74.8265 48.3929 74.6625 44.9108C74.57 42.9836 74.6902 41.0473 74.9767 39.1409C75.0091 38.9204 75.046 38.6975 75.083 38.477C75.2494 37.5031 75.4619 36.5384 75.7115 35.5852C76.3585 39.343 77.6847 43.0732 79.6095 46.4291C81.0259 48.9006 82.7681 51.1722 84.806 53.1063C84.5357 52.7089 84.27 52.3046 84.0158 51.8935C82.6387 49.6792 81.488 47.2789 80.6007 44.8028C80.7047 44.9912 80.8087 45.1795 80.915 45.3679C82.3337 47.8463 84.0805 50.1225 86.1208 52.0657C83.4243 48.1173 81.4995 43.4752 80.5014 38.8216C79.3599 33.4973 79.383 27.2197 82.7265 21.2224C83.1031 20.5471 83.5236 19.8741 83.9904 19.2034C84.8361 17.9906 85.8319 16.7939 86.9942 15.6271C86.8671 15.8154 86.7169 16.0543 86.5505 16.3345C85.0463 18.8956 82.3129 25.1801 85.4715 33.3962C86.1392 35.135 87.0704 36.9588 88.3366 38.8537C88.3251 38.8239 88.2165 38.5391 88.057 38.0452C87.7728 37.154 87.3246 35.5783 86.9895 33.5777C86.9803 33.5317 86.9734 33.4881 86.9664 33.4444C86.911 33.1137 86.8625 32.7737 86.8162 32.4246C87.4817 34.145 88.4059 35.9458 89.6537 37.8155C89.6075 37.6961 88.131 33.828 87.893 28.7036C87.7105 24.8011 88.2488 20.1704 90.6842 15.9119C90.9961 15.3675 91.3358 14.83 91.7124 14.3017C92.4426 13.2704 93.3021 12.2712 94.3049 11.3203C93.1589 12.8685 88.9212 20.5242 99.5546 38.6838C104.076 46.4061 106.697 52.957 107.094 58.5776C107.277 61.1501 106.995 63.5275 106.216 65.7302C107.517 63.578 108.254 61.2443 108.462 58.7062C108.462 58.7062 108.462 58.7062 108.462 58.7016C108.922 53.1109 106.824 46.5209 102.558 38.6631C103.064 38.4311 103.566 38.2175 104.058 38.0245C113.518 34.8295 120.274 38.0705 120.611 38.2244C123.488 39.5405 125.212 42.4553 125.662 45.4529C125.819 46.2499 125.831 47.0033 125.729 47.7176C125.634 48.8546 125.35 50.0008 124.84 51.1056H124.844Z" fill="url(#paint10_linear_5_2)"/>
<path d="M56.0983 152.789L53.1061 159.824H50.7608L47.7686 152.789H50.3356L52.0247 156.9L53.753 152.789H56.0983Z" fill="#0065FF"/>
<path d="M64.8451 158.035V159.824H58.96V152.789H64.7134V154.578H61.3052V155.403H64.2975V157.112H61.3052V158.037H64.8451V158.035Z" fill="#0065FF"/>
<path d="M75.3712 152.789V159.824H73.4095L70.72 156.627V159.824H68.3955V152.789H70.3572L73.0468 155.986V152.789H75.3712Z" fill="#0065FF"/>
<path d="M80.0022 159.11C79.3945 158.527 79.0918 157.709 79.0918 156.657V152.787H81.4787V156.586C81.4787 157.103 81.5711 157.477 81.7559 157.711C81.9408 157.946 82.2088 158.063 82.56 158.063C82.9112 158.063 83.1793 157.946 83.3641 157.711C83.549 157.477 83.6414 157.103 83.6414 156.586V152.787H85.9866V156.657C85.9866 157.709 85.684 158.527 85.0763 159.11C84.4686 159.693 83.6229 159.985 82.5392 159.985C81.4555 159.985 80.6076 159.693 80.0022 159.11Z" fill="#0065FF"/>
<path d="M95.5912 158.035V159.824H89.7061V152.789H95.4595V154.578H92.0513V155.403H95.0436V157.112H92.0513V158.037H95.5912V158.035Z" fill="#0065FF"/>
<path d="M111.112 158.014L111.78 158.577L110.558 159.955L109.809 159.312C109.109 159.762 108.319 159.985 107.443 159.985C106.884 159.985 106.38 159.896 105.932 159.719C105.483 159.542 105.132 159.298 104.876 158.991C104.619 158.683 104.492 158.334 104.492 157.945C104.492 157.502 104.603 157.119 104.825 156.795C105.047 156.471 105.393 156.177 105.867 155.915C105.463 155.485 105.259 155.038 105.259 154.569C105.259 154.195 105.366 153.864 105.578 153.579C105.791 153.294 106.089 153.071 106.472 152.911C106.856 152.75 107.302 152.669 107.808 152.669C108.272 152.669 108.684 152.741 109.037 152.885C109.391 153.03 109.666 153.237 109.862 153.508C110.058 153.779 110.155 154.094 110.155 154.447C110.155 154.801 110.056 155.12 109.857 155.398C109.659 155.676 109.349 155.933 108.933 156.168L109.682 156.802C109.802 156.533 109.894 156.23 109.954 155.887L111.784 156.43C111.65 157.02 111.426 157.548 111.117 158.017L111.112 158.014ZM108.413 158.125L107.119 157.02C106.856 157.208 106.724 157.431 106.724 157.693C106.724 157.867 106.803 158.012 106.962 158.125C107.122 158.237 107.339 158.295 107.614 158.295C107.889 158.295 108.15 158.237 108.413 158.125ZM107.457 154.245C107.371 154.319 107.33 154.415 107.33 154.537C107.33 154.624 107.355 154.707 107.406 154.787C107.457 154.868 107.549 154.971 107.683 155.1C108.053 154.9 108.24 154.698 108.24 154.495C108.24 154.388 108.203 154.3 108.129 154.234C108.055 154.167 107.951 154.133 107.815 154.133C107.66 154.133 107.54 154.169 107.457 154.243V154.245Z" fill="#0065FF"/>
<path d="M126.835 158.035V159.824H120.95V152.789H126.704V154.578H123.295V155.403H126.288V157.112H123.295V158.037H126.835V158.035Z" fill="#0065FF"/>
<path d="M137.845 152.789L134.853 159.824H132.508L129.516 152.789H132.083L133.772 156.9L135.5 152.789H137.845Z" fill="#0065FF"/>
<path d="M146.593 158.035V159.824H140.708V152.789H146.461V154.578H143.053V155.403H146.046V157.112H143.053V158.037H146.593V158.035Z" fill="#0065FF"/>
<path d="M157.118 152.789V159.824H155.157L152.467 156.627V159.824H150.143V152.789H152.104L154.794 155.986V152.789H157.118Z" fill="#0065FF"/>
<path d="M162.437 154.629H160.364V152.789H166.896V154.629H164.824V159.824H162.437V154.629Z" fill="#0065FF"/>
<path d="M171.067 159.79C170.511 159.659 170.055 159.484 169.697 159.262L170.467 157.532C170.804 157.727 171.181 157.883 171.599 157.998C172.017 158.115 172.417 158.175 172.803 158.175C173.133 158.175 173.369 158.143 173.51 158.079C173.651 158.014 173.722 157.92 173.722 157.792C173.722 157.645 173.63 157.534 173.445 157.461C173.26 157.387 172.955 157.307 172.53 157.22C171.985 157.105 171.53 156.983 171.165 156.852C170.799 156.721 170.483 156.508 170.215 156.209C169.945 155.91 169.81 155.506 169.81 154.999C169.81 154.555 169.935 154.153 170.185 153.793C170.434 153.432 170.806 153.147 171.303 152.938C171.798 152.731 172.401 152.626 173.108 152.626C173.593 152.626 174.069 152.679 174.538 152.782C175.007 152.885 175.418 153.039 175.776 153.239L175.058 154.957C174.365 154.608 173.706 154.433 173.087 154.433C172.468 154.433 172.167 154.58 172.167 154.877C172.167 155.017 172.257 155.123 172.44 155.194C172.623 155.265 172.923 155.338 173.339 155.419C173.877 155.52 174.332 155.635 174.704 155.766C175.074 155.897 175.398 156.11 175.67 156.404C175.943 156.698 176.079 157.1 176.079 157.61C176.079 158.053 175.954 158.453 175.705 158.811C175.455 159.17 175.083 159.455 174.587 159.666C174.092 159.877 173.489 159.983 172.782 159.983C172.195 159.983 171.624 159.919 171.067 159.788V159.79Z" fill="#0065FF"/>
<path d="M124.619 112.275C122.893 113.277 121.237 114.595 119.689 116.189L119.67 116.208C119.557 116.323 119.446 116.44 119.335 116.559C119.323 116.573 119.312 116.585 119.298 116.598C117.209 118.836 116.084 121.799 116.084 124.853V145.223H121.722V130.793C121.722 124.155 122.059 119.628 122.741 117.216C123.402 115.236 124.455 113.366 125.902 111.605C125.474 111.802 125.047 112.025 124.619 112.275Z" fill="url(#paint11_linear_5_2)"/>
<path d="M27.3232 87.9485H29.3704V86.134H22.9238V87.9485H24.971V93.0776H27.3255V87.9485H27.3232Z" fill="url(#paint12_linear_5_2)"/>
<path d="M35.6248 93.0776H37.9794V86.134H35.6248V88.594H33.4483V86.134H31.0938V93.0776H33.4483V90.5188H35.6248V93.0776Z" fill="url(#paint13_linear_5_2)"/>
<path d="M46.038 91.3136H42.5467V90.4017H45.5019V88.7134H42.5467V87.9003H45.9086V86.134H40.2314V93.0776H46.038V91.3113V91.3136Z" fill="url(#paint14_linear_5_2)"/>
<path d="M82.9683 138.546C82.4553 138.562 81.9401 138.562 81.4248 138.546H82.9683Z" fill="url(#paint15_linear_5_2)"/>
<path d="M83.7403 145.501V145.535H82.1807C82.7029 145.535 83.2227 145.524 83.7403 145.501Z" fill="url(#paint16_linear_5_2)"/>
<path d="M101.451 107.647C97.0936 102.899 91.6174 100.527 85.0184 100.527C78.4193 100.527 72.9408 102.913 68.583 107.684C64.6434 112.041 62.6748 117.175 62.6748 123.087C62.6748 125.104 62.9151 127.033 63.3957 128.878C64.3569 129.751 65.4083 130.559 66.5474 131.306L66.5867 131.333C66.6906 131.404 66.7969 131.471 66.9032 131.538C68.6223 132.629 70.48 133.543 72.4186 134.253C71.8063 133.559 71.2772 132.833 70.8312 132.075C69.1491 129.222 68.3081 126.255 68.3081 123.165C68.3081 118.397 69.9509 114.324 73.2412 110.952C76.5246 107.58 80.4549 105.897 85.0184 105.897C89.5818 105.897 93.4682 107.58 96.68 110.952C97.9554 112.303 98.9605 113.729 99.6907 115.234C99.8085 115.617 99.9171 116.001 100.016 116.387C100.71 119.049 100.864 121.796 100.481 124.456C101.694 122.343 102.775 120.126 103.801 118.032C104.055 117.506 104.33 116.975 104.612 116.458C104.645 116.396 104.677 116.336 104.712 116.277C105.065 115.638 105.435 115.009 105.823 114.391C104.823 111.958 103.367 109.71 101.451 107.647Z" fill="url(#paint17_linear_5_2)"/>
<path d="M107.509 135.808C106.197 137.546 104.825 139.062 103.364 140.392C102.81 140.9 102.237 141.382 101.647 141.839V145.535H107.477C107.509 145.381 107.521 142.14 107.509 135.808Z" fill="url(#paint18_linear_5_2)"/>
<path d="M167.775 102.626L155.692 113.102C157.049 114.423 158.375 115.776 159.634 117.129C159.644 117.138 159.65 117.147 159.66 117.156L175.917 102.626H167.775Z" fill="url(#paint19_linear_5_2)"/>
<path d="M176.077 144.752H167.694C162.846 137.023 156.938 128.425 152.53 123.526C152.238 123.202 151.952 122.892 151.672 122.6C151.28 122.189 150.884 121.78 150.482 121.376V111.694C150.626 111.823 150.764 111.949 150.903 112.076L151.025 112.188C151.864 112.953 152.698 113.729 153.514 114.52C153.599 114.602 153.685 114.685 153.77 114.768C155.138 116.093 156.472 117.45 157.77 118.845C158.727 119.869 159.662 120.91 160.58 121.971C164.753 126.788 168.542 131.974 171.923 137.494C172.475 138.389 174.268 141.545 176.077 144.752Z" fill="url(#paint20_linear_5_2)"/>
<path d="M147.942 86.134H142.38V145.301H147.942V86.134Z" fill="url(#paint21_linear_5_2)"/>
<path d="M139.837 103.6V111.901C136.732 109.618 133.354 107.812 130.271 107.941C130.17 107.946 130.07 107.95 129.969 107.957H129.964C129.664 107.978 129.363 108.008 129.063 108.051C127.143 108.306 125.223 108.993 123.333 110.096C121.389 111.226 119.539 112.705 117.859 114.437C117.729 114.568 117.602 114.701 117.475 114.837C115.467 116.98 113.73 119.488 112.408 122.191C110.943 125.189 109.393 128.359 107.503 131.352C105.864 133.954 103.967 136.419 101.648 138.529C100.349 139.715 98.9142 140.787 97.3198 141.708C93.2463 144.06 88.5696 145.285 83.7404 145.501C83.2228 145.524 82.703 145.535 82.1808 145.535H74.7198C73.315 145.535 71.9355 145.427 70.5884 145.223H47.7666V86.134H54.472V138.546H81.4252C81.9405 138.562 82.4557 138.562 82.9687 138.546C86.8528 138.438 90.5937 137.512 93.7892 135.665C94.2514 135.396 94.6996 135.107 95.1317 134.795C95.6054 134.457 96.0629 134.094 96.5042 133.708C96.5042 133.708 96.505 133.707 96.5065 133.706C100.774 129.992 103.572 124.277 106.086 119.136C106.334 118.629 106.592 118.128 106.863 117.634C106.886 117.588 106.911 117.542 106.937 117.496C110.067 111.825 114.573 107.098 119.777 104.066C123.067 102.151 126.498 101.105 129.976 100.958C130.715 100.929 131.452 100.954 132.178 101.034C134.075 101.234 135.928 101.781 137.707 102.557C138.43 102.869 139.139 103.221 139.837 103.6Z" fill="url(#paint22_linear_5_2)"/>
<defs>
<filter id="filter0_d_5_2" x="0" y="-7" width="204" height="204" filterUnits="userSpaceOnUse" color-interpolation-filters="sRGB">
<feFlood flood-opacity="0" result="BackgroundImageFix"/>
<feColorMatrix in="SourceAlpha" type="matrix" values="0 0 0 0 0 0 0 0 0 0 0 0 0 0 0 0 0 0 127 0" result="hardAlpha"/>
<feOffset dy="6"/>
<feGaussianBlur stdDeviation="7"/>
<feComposite in2="hardAlpha" operator="out"/>
<feColorMatrix type="matrix" values="0 0 0 0 0 0 0 0 0 0 0 0 0 0 0 0 0 0 0.35 0"/>
<feBlend mode="normal" in2="BackgroundImageFix" result="effect1_dropShadow_5_2"/>
<feBlend mode="normal" in="SourceGraphic" in2="effect1_dropShadow_5_2" result="shape"/>
</filter>
<linearGradient id="paint0_linear_5_2" x1="129.961" y1="68.2776" x2="126.435" y2="49.473" gradientUnits="userSpaceOnUse">
<stop stop-color="#00FFFF"/>
<stop offset="0.14" stop-color="#00FAFF"/>
<stop offset="0.31" stop-color="#00ECFF"/>
<stop offset="0.48" stop-color="#00D5FF"/>
<stop offset="0.66" stop-color="#00B6FF"/>
<stop offset="0.84" stop-color="#008DFF"/>
<stop offset="1" stop-color="#0065FF"/>
</linearGradient>
<linearGradient id="paint1_linear_5_2" x1="145.535" y1="50.2056" x2="91.5534" y2="74.425" gradientUnits="userSpaceOnUse">
<stop stop-color="#00FFFF"/>
<stop offset="0.14" stop-color="#00FAFF"/>
<stop offset="0.31" stop-color="#00ECFF"/>
<stop offset="0.48" stop-color="#00D5FF"/>
<stop offset="0.66" stop-color="#00B6FF"/>
<stop offset="0.84" stop-color="#008DFF"/>
<stop offset="1" stop-color="#0065FF"/>
</linearGradient>
<linearGradient id="paint2_linear_5_2" x1="145.535" y1="50.2056" x2="91.5534" y2="74.425" gradientUnits="userSpaceOnUse">
<stop stop-color="#00FFFF"/>
<stop offset="0.14" stop-color="#00FAFF"/>
<stop offset="0.31" stop-color="#00ECFF"/>
<stop offset="0.48" stop-color="#00D5FF"/>
<stop offset="0.66" stop-color="#00B6FF"/>
<stop offset="0.84" stop-color="#008DFF"/>
<stop offset="1" stop-color="#0065FF"/>
</linearGradient>
<linearGradient id="paint3_linear_5_2" x1="83.7949" y1="79.3139" x2="67.7832" y2="86.4984" gradientUnits="userSpaceOnUse">
<stop stop-color="#00FFFF"/>
<stop offset="0.14" stop-color="#00FAFF"/>
<stop offset="0.31" stop-color="#00ECFF"/>
<stop offset="0.48" stop-color="#00D5FF"/>
<stop offset="0.66" stop-color="#00B6FF"/>
<stop offset="0.84" stop-color="#008DFF"/>
<stop offset="1" stop-color="#0065FF"/>
</linearGradient>
<linearGradient id="paint4_linear_5_2" x1="139.591" y1="55.1883" x2="85.3823" y2="79.5096" gradientUnits="userSpaceOnUse">
<stop stop-color="#00FFFF"/>
<stop offset="0.14" stop-color="#00FAFF"/>
<stop offset="0.31" stop-color="#00ECFF"/>
<stop offset="0.48" stop-color="#00D5FF"/>
<stop offset="0.66" stop-color="#00B6FF"/>
<stop offset="0.84" stop-color="#008DFF"/>
<stop offset="1" stop-color="#0065FF"/>
</linearGradient>
<linearGradient id="paint5_linear_5_2" x1="139.591" y1="55.1883" x2="85.3823" y2="79.5096" gradientUnits="userSpaceOnUse">
<stop stop-color="#00FFFF"/>
<stop offset="0.14" stop-color="#00FAFF"/>
<stop offset="0.31" stop-color="#00ECFF"/>
<stop offset="0.48" stop-color="#00D5FF"/>
<stop offset="0.66" stop-color="#00B6FF"/>
<stop offset="0.84" stop-color="#008DFF"/>
<stop offset="1" stop-color="#0065FF"/>
</linearGradient>
<linearGradient id="paint6_linear_5_2" x1="88.8868" y1="92.3033" x2="80.5445" y2="5.71658" gradientUnits="userSpaceOnUse">
<stop stop-color="#00FFFF"/>
<stop offset="0.14" stop-color="#00FAFF"/>
<stop offset="0.31" stop-color="#00ECFF"/>
<stop offset="0.48" stop-color="#00D5FF"/>
<stop offset="0.66" stop-color="#00B6FF"/>
<stop offset="0.84" stop-color="#008DFF"/>
<stop offset="1" stop-color="#0065FF"/>
</linearGradient>
<linearGradient id="paint7_linear_5_2" x1="89.5077" y1="92.2432" x2="81.1655" y2="5.65653" gradientUnits="userSpaceOnUse">
<stop stop-color="#00FFFF"/>
<stop offset="0.14" stop-color="#00FAFF"/>
<stop offset="0.31" stop-color="#00ECFF"/>
<stop offset="0.48" stop-color="#00D5FF"/>
<stop offset="0.66" stop-color="#00B6FF"/>
<stop offset="0.84" stop-color="#008DFF"/>
<stop offset="1" stop-color="#0065FF"/>
</linearGradient>
<linearGradient id="paint8_linear_5_2" x1="97.4884" y1="91.4744" x2="89.1461" y2="4.88774" gradientUnits="userSpaceOnUse">
<stop stop-color="#00FFFF"/>
<stop offset="0.14" stop-color="#00FAFF"/>
<stop offset="0.31" stop-color="#00ECFF"/>
<stop offset="0.48" stop-color="#00D5FF"/>
<stop offset="0.66" stop-color="#00B6FF"/>
<stop offset="0.84" stop-color="#008DFF"/>
<stop offset="1" stop-color="#0065FF"/>
</linearGradient>
<linearGradient id="paint9_linear_5_2" x1="127.341" y1="58.4769" x2="108.52" y2="29.4983" gradientUnits="userSpaceOnUse">
<stop stop-color="#00FFFF"/>
<stop offset="0.14" stop-color="#00FAFF"/>
<stop offset="0.31" stop-color="#00ECFF"/>
<stop offset="0.48" stop-color="#00D5FF"/>
<stop offset="0.66" stop-color="#00B6FF"/>
<stop offset="0.84" stop-color="#008DFF"/>
<stop offset="1" stop-color="#0065FF"/>
</linearGradient>
<linearGradient id="paint10_linear_5_2" x1="138.314" y1="30.2703" x2="78.5094" y2="57.1031" gradientUnits="userSpaceOnUse">
<stop stop-color="#00FFFF"/>
<stop offset="0.14" stop-color="#00FAFF"/>
<stop offset="0.31" stop-color="#00ECFF"/>
<stop offset="0.48" stop-color="#00D5FF"/>
<stop offset="0.66" stop-color="#00B6FF"/>
<stop offset="0.84" stop-color="#008DFF"/>
<stop offset="1" stop-color="#0065FF"/>
</linearGradient>
<linearGradient id="paint11_linear_5_2" x1="120.994" y1="112.443" x2="120.994" y2="145.305" gradientUnits="userSpaceOnUse">
<stop stop-color="#00FFFF"/>
<stop offset="0.14" stop-color="#00FAFF"/>
<stop offset="0.31" stop-color="#00ECFF"/>
<stop offset="0.48" stop-color="#00D5FF"/>
<stop offset="0.66" stop-color="#00B6FF"/>
<stop offset="0.84" stop-color="#008DFF"/>
<stop offset="1" stop-color="#0065FF"/>
</linearGradient>
<linearGradient id="paint12_linear_5_2" x1="75.333" y1="89.6069" x2="0.753571" y2="89.6069" gradientUnits="userSpaceOnUse">
<stop stop-color="#00FFFF"/>
<stop offset="0.14" stop-color="#00FAFF"/>
<stop offset="0.31" stop-color="#00ECFF"/>
<stop offset="0.48" stop-color="#00D5FF"/>
<stop offset="0.66" stop-color="#00B6FF"/>
<stop offset="0.84" stop-color="#008DFF"/>
<stop offset="1" stop-color="#0065FF"/>
</linearGradient>
<linearGradient id="paint13_linear_5_2" x1="75.3326" y1="89.6069" x2="0.753193" y2="89.6069" gradientUnits="userSpaceOnUse">
<stop stop-color="#00FFFF"/>
<stop offset="0.14" stop-color="#00FAFF"/>
<stop offset="0.31" stop-color="#00ECFF"/>
<stop offset="0.48" stop-color="#00D5FF"/>
<stop offset="0.66" stop-color="#00B6FF"/>
<stop offset="0.84" stop-color="#008DFF"/>
<stop offset="1" stop-color="#0065FF"/>
</linearGradient>
<linearGradient id="paint14_linear_5_2" x1="75.3318" y1="89.6069" x2="0.752453" y2="89.6069" gradientUnits="userSpaceOnUse">
<stop stop-color="#00FFFF"/>
<stop offset="0.14" stop-color="#00FAFF"/>
<stop offset="0.31" stop-color="#00ECFF"/>
<stop offset="0.48" stop-color="#00D5FF"/>
<stop offset="0.66" stop-color="#00B6FF"/>
<stop offset="0.84" stop-color="#008DFF"/>
<stop offset="1" stop-color="#0065FF"/>
</linearGradient>
<linearGradient id="paint15_linear_5_2" x1="82.1965" y1="77.0495" x2="82.1965" y2="151.188" gradientUnits="userSpaceOnUse">
<stop stop-opacity="0"/>
<stop offset="0.04" stop-color="#000404" stop-opacity="0.02"/>
<stop offset="0.09" stop-color="#001212" stop-opacity="0.07"/>
<stop offset="0.14" stop-color="#002929" stop-opacity="0.16"/>
<stop offset="0.19" stop-color="#004848" stop-opacity="0.29"/>
<stop offset="0.25" stop-color="#007171" stop-opacity="0.45"/>
<stop offset="0.3" stop-color="#00A3A3" stop-opacity="0.64"/>
<stop offset="0.36" stop-color="#00DDDD" stop-opacity="0.87"/>
<stop offset="0.39" stop-color="#00FFFF"/>
<stop offset="0.47" stop-color="#00FAFF"/>
<stop offset="0.57" stop-color="#00ECFF"/>
<stop offset="0.68" stop-color="#00D5FF"/>
<stop offset="0.79" stop-color="#00B6FF"/>
<stop offset="0.9" stop-color="#008DFF"/>
<stop offset="1" stop-color="#0065FF"/>
</linearGradient>
<linearGradient id="paint16_linear_5_2" x1="82.9617" y1="10.9929" x2="82.9617" y2="151.189" gradientUnits="userSpaceOnUse">
<stop stop-opacity="0"/>
<stop offset="0.04" stop-color="#000404" stop-opacity="0.02"/>
<stop offset="0.09" stop-color="#001212" stop-opacity="0.07"/>
<stop offset="0.14" stop-color="#002929" stop-opacity="0.16"/>
<stop offset="0.19" stop-color="#004848" stop-opacity="0.29"/>
<stop offset="0.25" stop-color="#007171" stop-opacity="0.45"/>
<stop offset="0.3" stop-color="#00A3A3" stop-opacity="0.64"/>
<stop offset="0.36" stop-color="#00DDDD" stop-opacity="0.87"/>
<stop offset="0.39" stop-color="#00FFFF"/>
<stop offset="0.47" stop-color="#00FAFF"/>
<stop offset="0.57" stop-color="#00ECFF"/>
<stop offset="0.68" stop-color="#00D5FF"/>
<stop offset="0.79" stop-color="#00B6FF"/>
<stop offset="0.9" stop-color="#008DFF"/>
<stop offset="1" stop-color="#0065FF"/>
</linearGradient>
<linearGradient id="paint17_linear_5_2" x1="84.2489" y1="77.0496" x2="84.2489" y2="151.188" gradientUnits="userSpaceOnUse">
<stop stop-color="#00FFFF"/>
<stop offset="0.14" stop-color="#00FAFF"/>
<stop offset="0.31" stop-color="#00ECFF"/>
<stop offset="0.48" stop-color="#00D5FF"/>
<stop offset="0.66" stop-color="#00B6FF"/>
<stop offset="0.84" stop-color="#008DFF"/>
<stop offset="1" stop-color="#0065FF"/>
</linearGradient>
<linearGradient id="paint18_linear_5_2" x1="104.58" y1="77.0495" x2="104.58" y2="151.188" gradientUnits="userSpaceOnUse">
<stop stop-color="#00FFFF"/>
<stop offset="0.14" stop-color="#00FAFF"/>
<stop offset="0.31" stop-color="#00ECFF"/>
<stop offset="0.48" stop-color="#00D5FF"/>
<stop offset="0.66" stop-color="#00B6FF"/>
<stop offset="0.84" stop-color="#008DFF"/>
<stop offset="1" stop-color="#0065FF"/>
</linearGradient>
<linearGradient id="paint19_linear_5_2" x1="165.806" y1="77.0496" x2="165.806" y2="151.188" gradientUnits="userSpaceOnUse">
<stop stop-color="#00FFFF"/>
<stop offset="0.14" stop-color="#00FAFF"/>
<stop offset="0.31" stop-color="#00ECFF"/>
<stop offset="0.48" stop-color="#00D5FF"/>
<stop offset="0.66" stop-color="#00B6FF"/>
<stop offset="0.84" stop-color="#008DFF"/>
<stop offset="1" stop-color="#0065FF"/>
</linearGradient>
<linearGradient id="paint20_linear_5_2" x1="163.279" y1="77.0496" x2="163.279" y2="151.188" gradientUnits="userSpaceOnUse">
<stop stop-color="#00FFFF"/>
<stop offset="0.14" stop-color="#00FAFF"/>
<stop offset="0.31" stop-color="#00ECFF"/>
<stop offset="0.48" stop-color="#00D5FF"/>
<stop offset="0.66" stop-color="#00B6FF"/>
<stop offset="0.84" stop-color="#008DFF"/>
<stop offset="1" stop-color="#0065FF"/>
</linearGradient>
<linearGradient id="paint21_linear_5_2" x1="145.16" y1="77.0496" x2="145.16" y2="151.188" gradientUnits="userSpaceOnUse">
<stop stop-color="#00FFFF"/>
<stop offset="0.14" stop-color="#00FAFF"/>
<stop offset="0.31" stop-color="#00ECFF"/>
<stop offset="0.48" stop-color="#00D5FF"/>
<stop offset="0.66" stop-color="#00B6FF"/>
<stop offset="0.84" stop-color="#008DFF"/>
<stop offset="1" stop-color="#0065FF"/>
</linearGradient>
<linearGradient id="paint22_linear_5_2" x1="93.8031" y1="77.0496" x2="93.8031" y2="151.188" gradientUnits="userSpaceOnUse">
<stop stop-color="#00FFFF"/>
<stop offset="0.14" stop-color="#00FAFF"/>
<stop offset="0.31" stop-color="#00ECFF"/>
<stop offset="0.48" stop-color="#00D5FF"/>
<stop offset="0.66" stop-color="#00B6FF"/>
<stop offset="0.84" stop-color="#008DFF"/>
<stop offset="1" stop-color="#0065FF"/>
</linearGradient>
</defs>
</svg>
