<svg width="31" height="30" viewBox="0 0 31 30" fill="none" xmlns="http://www.w3.org/2000/svg">
<path d="M15.79 0C7.50576 0 0.790039 6.71572 0.790039 15C0.790039 23.2842 7.50576 29.9999 15.79 29.9999C24.0743 29.9999 30.79 23.2842 30.79 15C30.7812 6.71942 24.0706 0.00885184 15.79 0ZM22.1071 15.4779C22.0032 15.6862 21.8344 15.8551 21.6261 15.9589V15.9643L13.0547 20.25C12.5253 20.5145 11.8818 20.2998 11.6173 19.7705C11.5421 19.62 11.5033 19.4539 11.5043 19.2857V10.7143C11.504 10.1225 11.9835 9.64266 12.5752 9.64235C12.7416 9.64228 12.9058 9.68096 13.0547 9.75535L21.6261 14.0411C22.1557 14.305 22.3711 14.9483 22.1071 15.4779Z" fill="#04212F"/>
</svg>
