<svg width="33" height="33" viewBox="0 0 33 33" fill="none" xmlns="http://www.w3.org/2000/svg">
<path d="M27.19 20.8117C27.1274 20.7074 27.0615 20.6039 26.9906 20.5029C27.1291 19.7676 27.2333 18.2318 26.0029 17.2377C26.0613 17.1693 26.1172 17.0984 26.1714 17.0249C28.0083 18.3512 27.1891 20.8117 27.1891 20.8117H27.19Z" fill="url(#paint0_linear_59_293)"/>
<path d="M26.9907 20.5028C26.3133 19.5238 25.2981 18.705 24.6934 18.2659C25.1864 18.0231 25.6351 17.675 26.0038 17.2368C27.2334 18.2309 27.13 19.7675 26.9915 20.502L26.9907 20.5028Z" fill="url(#paint1_linear_59_293)"/>
<path d="M26.9907 20.5028C26.3133 19.5238 25.2981 18.705 24.6934 18.2659C25.1864 18.0231 25.6351 17.675 26.0038 17.2368C27.2334 18.2309 27.13 19.7675 26.9915 20.502L26.9907 20.5028Z" fill="url(#paint2_linear_59_293)"/>
<path d="M9.90592 28.963C9.84335 28.9796 9.77829 28.9963 9.71156 29.013C9.87672 27.8111 9.9251 26.5775 9.78163 25.3806C8.34018 27.115 6.61011 28.7192 5.66666 29.5564C5.52819 29.5581 5.38805 29.5572 5.24707 29.5556C5.33466 29.4804 7.994 27.2611 10.0602 24.7747C10.2262 26.1577 10.1353 27.5883 9.90592 28.963Z" fill="url(#paint3_linear_59_293)"/>
<path d="M9.71272 29.0121C8.67335 29.2716 7.24107 29.5362 5.66699 29.5554C6.61127 28.7183 8.34051 27.114 9.78196 25.3796C9.92627 26.5765 9.87706 27.8101 9.71189 29.0121H9.71272Z" fill="url(#paint4_linear_59_293)"/>
<path d="M9.71272 29.0121C8.67335 29.2716 7.24107 29.5362 5.66699 29.5554C6.61127 28.7183 8.34051 27.114 9.78196 25.3796C9.92627 26.5765 9.87706 27.8101 9.71189 29.0121H9.71272Z" fill="url(#paint5_linear_59_293)"/>
<path d="M16.3158 27.7736C15.1054 28.7651 13.7941 29.6415 12.4802 30.4753C11.9739 30.7958 11.4667 31.1255 10.9429 31.4177C10.7393 31.5303 10.6392 31.6222 10.1337 31.9084C10.394 31.1781 10.6084 30.4303 10.776 29.6716C11.4542 26.6025 11.5693 23.0978 9.71829 20.3986C9.16857 19.5965 8.54127 18.8403 8.08832 17.9756C7.5019 16.858 7.11901 15.6335 7.05979 14.369C7.02308 13.587 7.07981 12.8015 7.21161 12.0303C7.27834 11.643 7.36342 11.2583 7.46603 10.8785C7.51941 10.6815 7.57697 10.4854 7.6387 10.2909C7.67791 10.1682 7.81805 9.92866 7.80554 9.80347C7.83223 10.0697 7.8681 10.3351 7.91398 10.6006C7.82389 10.9469 7.74714 11.2983 7.68708 11.6514C7.55528 12.4226 7.49773 13.208 7.53443 13.9893C7.59366 15.2546 7.97737 16.4782 8.56296 17.5958C9.01592 18.4605 9.64238 19.2167 10.1929 20.0196C12.044 22.7189 11.9288 26.2236 11.2507 29.2926C11.083 30.0505 10.8686 30.7983 10.6084 31.5287C11.113 31.2432 11.214 31.1514 11.4175 31.0379C11.9405 30.7466 12.4485 30.4169 12.9549 30.0956C14.0985 29.3711 15.2405 28.6124 16.3158 27.7736Z" fill="url(#paint6_linear_59_293)"/>
<path d="M11.6717 16.5893C10.8792 15.8306 10.2102 14.9317 9.67883 13.951C9.46695 13.36 9.29594 12.7582 9.16748 12.1556C8.7554 10.2209 8.76291 7.93978 9.96995 5.76049C10.4338 4.92417 11.0752 4.1012 11.9369 3.31997C11.9995 3.26321 12.0604 3.20729 12.1255 3.15137C12.1138 3.16639 12.0612 3.234 11.9853 3.34918C11.3338 4.00772 10.8283 4.68963 10.4446 5.3824C9.23755 7.56251 9.22921 9.84362 9.64129 11.7775C10.0017 13.4685 10.6974 15.1554 11.67 16.5901L11.6717 16.5893Z" fill="url(#paint7_linear_59_293)"/>
<path d="M12.9468 11.4094C12.4964 10.73 12.1627 10.0757 11.9225 9.4505C11.8824 9.14585 11.8516 8.81867 11.8357 8.4773C11.7707 7.05922 11.965 5.37572 12.8442 3.82994C13.2722 3.07709 13.8619 2.35594 14.6636 1.71493C14.6811 1.70074 14.6978 1.68572 14.7161 1.67236C14.7111 1.67737 14.6894 1.70074 14.6561 1.74331C14.6469 1.75499 14.6369 1.76835 14.6269 1.78254C14.0788 2.30587 13.6501 2.86842 13.3197 3.45101C12.4405 4.99846 12.2461 6.68029 12.312 8.0992C12.398 9.96048 12.931 11.366 12.9477 11.4103L12.9468 11.4094Z" fill="url(#paint8_linear_59_293)"/>
<path d="M26.159 16.0526C25.9571 16.4908 25.6818 16.8697 25.3548 17.1786C24.9353 17.5759 24.4331 17.8605 23.8967 18.0115C24.2404 17.853 24.5624 17.636 24.8468 17.3664C25.1738 17.0575 25.4491 16.6786 25.651 16.2404C25.8353 15.8389 25.9379 15.4225 25.9721 15.0093C26.0097 14.7506 26.0047 14.476 25.9479 14.1863C25.7853 13.0971 25.163 12.0379 24.1244 11.5597C24.0027 11.5038 21.5635 10.3252 18.1484 11.4871C18.1509 11.4854 18.1543 11.4846 18.1576 11.4829C21.8313 10.0214 24.5048 11.3126 24.6333 11.3719C25.6718 11.8501 26.2941 12.9093 26.4568 13.9985C26.5135 14.2882 26.5177 14.5619 26.481 14.8215C26.4468 15.2347 26.3442 15.6511 26.1598 16.0526H26.159Z" fill="url(#paint9_linear_59_293)"/>
<path d="M25.6501 16.2402C25.4482 16.6784 25.1729 17.0574 24.8459 17.3662C24.5615 17.6358 24.2395 17.852 23.8958 18.0114C23.6964 18.0673 23.4921 18.1049 23.286 18.1241C23.2276 18.1299 23.1701 18.1332 23.1117 18.1357C23.075 18.1758 23.0308 18.225 22.9799 18.2876C22.939 18.3369 22.8931 18.3936 22.8422 18.4604C21.259 20.5446 20.6117 23.1478 18.935 25.1919C18.155 26.1459 17.2666 26.9948 16.3157 27.7735C15.2404 28.6123 14.0984 29.371 12.9548 30.0955C12.4485 30.4168 11.9413 30.7465 11.4174 31.0378C11.2139 31.1513 11.1129 31.2431 10.6083 31.5286C10.6258 31.4785 10.6433 31.4284 10.66 31.3784C10.8977 30.6956 11.0946 29.9978 11.2498 29.2926C11.9279 26.2235 12.043 22.7188 10.192 20.0196C9.6423 19.2175 9.01501 18.4604 8.56205 17.5957C7.97563 16.4781 7.59275 15.2545 7.53352 13.9892C7.50015 13.2889 7.54353 12.5853 7.64697 11.8925C7.65864 11.8124 7.67199 11.7314 7.68534 11.6513C7.7454 11.2974 7.82214 10.9469 7.91223 10.6005C8.1458 11.966 8.62462 13.3215 9.31948 14.5409C9.83083 15.439 10.4598 16.2644 11.1955 16.9672C11.0979 16.8228 11.002 16.6759 10.9102 16.5265C10.4131 15.7219 9.99766 14.8497 9.67734 13.95C9.71488 14.0184 9.75241 14.0868 9.79079 14.1553C10.303 15.0559 10.9336 15.883 11.6702 16.5891C10.6967 15.1544 10.0018 13.4675 9.64147 11.7765C9.22939 9.84179 9.23773 7.56068 10.4448 5.3814C10.5807 5.13601 10.7326 4.89145 10.9011 4.64774C11.2064 4.20704 11.5659 3.77218 11.9855 3.34818C11.9396 3.41662 11.8854 3.50342 11.8253 3.60525C11.2823 4.53589 10.2955 6.8195 11.4358 9.80506C11.6768 10.4369 12.013 11.0996 12.4701 11.7882C12.466 11.7773 12.4268 11.6739 12.3692 11.4944C12.2666 11.1706 12.1048 10.598 11.9838 9.871C11.9805 9.85431 11.978 9.83845 11.9755 9.82259C11.9555 9.7024 11.9379 9.57887 11.9213 9.452C12.1615 10.0772 12.4952 10.7315 12.9456 11.4109C12.9289 11.3675 12.3959 9.96198 12.31 8.09986C12.2441 6.68179 12.4384 4.99912 13.3177 3.45168C13.4303 3.25386 13.5529 3.05855 13.6889 2.86658C13.9525 2.49182 14.2628 2.12875 14.6248 1.7832C14.2111 2.34576 12.6812 5.12766 16.52 11.7264C18.1525 14.5325 19.0985 16.913 19.2419 18.9554C19.3078 19.8902 19.2061 20.7541 18.925 21.5545C19.3946 20.7724 19.6607 19.9244 19.7358 19.0021C19.7358 19.0021 19.7358 19.0021 19.7358 19.0004C19.9018 16.9689 19.1444 14.5743 17.6045 11.7189C17.7872 11.6346 17.9682 11.557 18.1458 11.4869C21.5609 10.3259 24.0001 11.5036 24.1219 11.5595C25.1604 12.0378 25.7827 13.0969 25.9454 14.1862C26.0021 14.4758 26.0062 14.7495 25.9695 15.0091C25.9353 15.4223 25.8327 15.8388 25.6484 16.2402H25.6501Z" fill="url(#paint10_linear_59_293)"/>
<defs>
<linearGradient id="paint0_linear_59_293" x1="27.4966" y1="22.4802" x2="26.2077" y2="15.6501" gradientUnits="userSpaceOnUse">
<stop stop-color="#00FFFF"/>
<stop offset="0.14" stop-color="#00FAFF"/>
<stop offset="0.31" stop-color="#00ECFF"/>
<stop offset="0.48" stop-color="#00D5FF"/>
<stop offset="0.66" stop-color="#00B6FF"/>
<stop offset="0.84" stop-color="#008DFF"/>
<stop offset="1" stop-color="#0065FF"/>
</linearGradient>
<linearGradient id="paint1_linear_59_293" x1="33.1191" y1="15.9132" x2="13.5884" y2="24.619" gradientUnits="userSpaceOnUse">
<stop stop-color="#00FFFF"/>
<stop offset="0.14" stop-color="#00FAFF"/>
<stop offset="0.31" stop-color="#00ECFF"/>
<stop offset="0.48" stop-color="#00D5FF"/>
<stop offset="0.66" stop-color="#00B6FF"/>
<stop offset="0.84" stop-color="#008DFF"/>
<stop offset="1" stop-color="#0065FF"/>
</linearGradient>
<linearGradient id="paint2_linear_59_293" x1="33.1191" y1="15.9132" x2="13.5884" y2="24.619" gradientUnits="userSpaceOnUse">
<stop stop-color="#00FFFF"/>
<stop offset="0.14" stop-color="#00FAFF"/>
<stop offset="0.31" stop-color="#00ECFF"/>
<stop offset="0.48" stop-color="#00D5FF"/>
<stop offset="0.66" stop-color="#00B6FF"/>
<stop offset="0.84" stop-color="#008DFF"/>
<stop offset="1" stop-color="#0065FF"/>
</linearGradient>
<linearGradient id="paint3_linear_59_293" x1="10.8298" y1="26.4906" x2="5.03671" y2="29.073" gradientUnits="userSpaceOnUse">
<stop stop-color="#00FFFF"/>
<stop offset="0.14" stop-color="#00FAFF"/>
<stop offset="0.31" stop-color="#00ECFF"/>
<stop offset="0.48" stop-color="#00D5FF"/>
<stop offset="0.66" stop-color="#00B6FF"/>
<stop offset="0.84" stop-color="#008DFF"/>
<stop offset="1" stop-color="#0065FF"/>
</linearGradient>
<linearGradient id="paint4_linear_59_293" x1="30.9735" y1="17.7237" x2="11.3608" y2="26.4662" gradientUnits="userSpaceOnUse">
<stop stop-color="#00FFFF"/>
<stop offset="0.14" stop-color="#00FAFF"/>
<stop offset="0.31" stop-color="#00ECFF"/>
<stop offset="0.48" stop-color="#00D5FF"/>
<stop offset="0.66" stop-color="#00B6FF"/>
<stop offset="0.84" stop-color="#008DFF"/>
<stop offset="1" stop-color="#0065FF"/>
</linearGradient>
<linearGradient id="paint5_linear_59_293" x1="30.9735" y1="17.7237" x2="11.3608" y2="26.4662" gradientUnits="userSpaceOnUse">
<stop stop-color="#00FFFF"/>
<stop offset="0.14" stop-color="#00FAFF"/>
<stop offset="0.31" stop-color="#00ECFF"/>
<stop offset="0.48" stop-color="#00D5FF"/>
<stop offset="0.66" stop-color="#00B6FF"/>
<stop offset="0.84" stop-color="#008DFF"/>
<stop offset="1" stop-color="#0065FF"/>
</linearGradient>
<linearGradient id="paint6_linear_59_293" x1="12.6683" y1="31.2106" x2="9.61744" y2="-0.249188" gradientUnits="userSpaceOnUse">
<stop stop-color="#00FFFF"/>
<stop offset="0.14" stop-color="#00FAFF"/>
<stop offset="0.31" stop-color="#00ECFF"/>
<stop offset="0.48" stop-color="#00D5FF"/>
<stop offset="0.66" stop-color="#00B6FF"/>
<stop offset="0.84" stop-color="#008DFF"/>
<stop offset="1" stop-color="#0065FF"/>
</linearGradient>
<linearGradient id="paint7_linear_59_293" x1="12.892" y1="31.1888" x2="9.84118" y2="-0.27092" gradientUnits="userSpaceOnUse">
<stop stop-color="#00FFFF"/>
<stop offset="0.14" stop-color="#00FAFF"/>
<stop offset="0.31" stop-color="#00ECFF"/>
<stop offset="0.48" stop-color="#00D5FF"/>
<stop offset="0.66" stop-color="#00B6FF"/>
<stop offset="0.84" stop-color="#008DFF"/>
<stop offset="1" stop-color="#0065FF"/>
</linearGradient>
<linearGradient id="paint8_linear_59_293" x1="15.7739" y1="30.9095" x2="12.7231" y2="-0.55028" gradientUnits="userSpaceOnUse">
<stop stop-color="#00FFFF"/>
<stop offset="0.14" stop-color="#00FAFF"/>
<stop offset="0.31" stop-color="#00ECFF"/>
<stop offset="0.48" stop-color="#00D5FF"/>
<stop offset="0.66" stop-color="#00B6FF"/>
<stop offset="0.84" stop-color="#008DFF"/>
<stop offset="1" stop-color="#0065FF"/>
</linearGradient>
<linearGradient id="paint9_linear_59_293" x1="26.5513" y1="18.919" x2="19.6941" y2="8.42959" gradientUnits="userSpaceOnUse">
<stop stop-color="#00FFFF"/>
<stop offset="0.14" stop-color="#00FAFF"/>
<stop offset="0.31" stop-color="#00ECFF"/>
<stop offset="0.48" stop-color="#00D5FF"/>
<stop offset="0.66" stop-color="#00B6FF"/>
<stop offset="0.84" stop-color="#008DFF"/>
<stop offset="1" stop-color="#0065FF"/>
</linearGradient>
<linearGradient id="paint10_linear_59_293" x1="30.513" y1="8.66917" x2="8.87543" y2="18.3144" gradientUnits="userSpaceOnUse">
<stop stop-color="#00FFFF"/>
<stop offset="0.14" stop-color="#00FAFF"/>
<stop offset="0.31" stop-color="#00ECFF"/>
<stop offset="0.48" stop-color="#00D5FF"/>
<stop offset="0.66" stop-color="#00B6FF"/>
<stop offset="0.84" stop-color="#008DFF"/>
<stop offset="1" stop-color="#0065FF"/>
</linearGradient>
</defs>
</svg>
