<svg width="21" height="21" viewBox="0 0 21 21" fill="none" xmlns="http://www.w3.org/2000/svg">
<path d="M10.2344 20.7422C7.58221 20.7422 5.03867 19.6886 3.16331 17.8133C1.28794 15.9379 0.234375 13.3944 0.234375 10.7422C0.234375 8.09002 1.28794 5.54648 3.16331 3.67112C5.03867 1.79576 7.58221 0.742188 10.2344 0.742188C12.8865 0.742187 15.4301 1.79576 17.3054 3.67112C19.1808 5.54648 20.2344 8.09002 20.2344 10.7422C20.2344 13.3944 19.1808 15.9379 17.3054 17.8133C15.4301 19.6886 12.8865 20.7422 10.2344 20.7422ZM17.9844 12.7422C18.3226 11.4303 18.3226 10.0541 17.9844 8.74219H14.1644C14.257 10.0739 14.257 11.4105 14.1644 12.7422H17.9844ZM17.1644 14.7422H13.9444C13.7769 15.9475 13.4577 17.1269 12.9944 18.2522C14.7511 17.6042 16.2261 16.3626 17.1644 14.7422ZM8.31437 12.7422H12.1544C12.2629 11.4111 12.2629 10.0733 12.1544 8.74219H8.31437C8.20584 10.0733 8.20584 11.4111 8.31437 12.7422ZM8.56437 14.7422C8.97437 17.1422 9.69438 18.7422 10.2344 18.7422C10.7744 18.7422 11.4944 17.1422 11.9044 14.7422H8.56437ZM2.48438 12.7422H6.30438C6.2117 11.4105 6.2117 10.0739 6.30438 8.74219H2.48438C2.1461 10.0541 2.1461 11.4303 2.48438 12.7422ZM3.30437 14.7422C4.24263 16.3626 5.71766 17.6042 7.47437 18.2522C7.05437 17.2922 6.73438 16.0922 6.52437 14.7422H3.30437ZM17.1644 6.74219C16.2261 5.12179 14.7511 3.88022 12.9944 3.23219C13.4144 4.19219 13.7344 5.39219 13.9444 6.74219H17.1644ZM8.56437 6.74219H11.9044C11.4944 4.34219 10.7744 2.74219 10.2344 2.74219C9.69438 2.74219 8.97437 4.34219 8.56437 6.74219ZM3.30437 6.74219H6.52437C6.72437 5.39219 7.05437 4.19219 7.47437 3.23219C5.71766 3.88022 4.24263 5.12179 3.30437 6.74219Z" fill="url(#paint0_linear_74_30)"/>
<defs>
<linearGradient id="paint0_linear_74_30" x1="25.1282" y1="5.37213" x2="6.5946" y2="18.6766" gradientUnits="userSpaceOnUse">
<stop stop-color="#00FFFF"/>
<stop offset="0.14" stop-color="#00FAFF"/>
<stop offset="0.31" stop-color="#00ECFF"/>
<stop offset="0.48" stop-color="#00D5FF"/>
<stop offset="0.66" stop-color="#00B6FF"/>
<stop offset="0.84" stop-color="#008DFF"/>
<stop offset="1" stop-color="#0065FF"/>
</linearGradient>
</defs>
</svg>
