<svg width="14" height="10" viewBox="0 0 14 10" fill="none" xmlns="http://www.w3.org/2000/svg">
<path d="M12.5085 1.50333C12.2768 1.21378 11.9294 1.00386 11.4661 0.873559C11.0028 0.743263 10.3513 0.678115 9.51165 0.678115H3.51801C2.64936 0.678115 1.9834 0.743263 1.52013 0.873559C1.05685 1.00386 0.709393 1.21378 0.477754 1.50333C0.246116 1.79287 0.101342 2.16929 0.0434322 2.63256C0.0144774 2.92211 0 3.42882 0 4.15269V6.41117C0 7.25085 0.0868644 7.88786 0.260593 8.32218C0.463277 8.84337 0.810734 9.23426 1.30297 9.49485C1.7952 9.75545 2.53355 9.88574 3.51801 9.88574H9.51165C10.2355 9.88574 10.8146 9.82783 11.2489 9.71201C11.6833 9.59619 12.0307 9.41523 12.2913 9.16911C12.5519 8.92299 12.7401 8.58278 12.8559 8.14845C12.9718 7.71413 13.0297 7.13504 13.0297 6.41117V4.15269C13.0297 3.42882 13.0007 2.89316 12.9428 2.5457C12.8849 2.08242 12.7401 1.73497 12.5085 1.50333ZM8.38241 5.58595L5.64619 7.01922C5.58828 7.04817 5.51589 7.06265 5.42903 7.06265C5.34216 7.06265 5.26977 7.04817 5.21186 7.01922C5.09605 6.93235 5.03814 6.80206 5.03814 6.62833V3.80523C5.03814 3.6315 5.10328 3.50845 5.23358 3.43606C5.36388 3.36367 5.50141 3.35643 5.64619 3.41434L8.38241 4.84761C8.52719 4.93447 8.59958 5.05753 8.59958 5.21678C8.59958 5.37603 8.52719 5.49909 8.38241 5.58595Z" fill="white"/>
</svg>
