<svg width="23" height="17" viewBox="0 0 23 17" fill="none" xmlns="http://www.w3.org/2000/svg">
<path d="M21.661 2.17479C21.2599 1.67338 20.6582 1.30985 19.8559 1.08422C19.0537 0.858583 17.9255 0.745766 16.4714 0.745766H6.09216C4.58792 0.745766 3.43467 0.858583 2.63242 1.08422C1.83016 1.30985 1.22846 1.67338 0.82733 2.17479C0.426201 2.6762 0.175494 3.32804 0.0752119 4.1303C0.0250706 4.63171 0 5.50918 0 6.76272V10.6737C0 12.1278 0.150424 13.2309 0.451271 13.9831C0.80226 14.8856 1.40395 15.5625 2.25636 16.0138C3.10876 16.465 4.38736 16.6907 6.09216 16.6907H16.4714C17.7249 16.6907 18.7278 16.5904 19.4799 16.3898C20.232 16.1893 20.8337 15.8759 21.285 15.4497C21.7362 15.0235 22.0621 14.4343 22.2627 13.6822C22.4633 12.9301 22.5636 11.9273 22.5636 10.6737V6.76272C22.5636 5.50918 22.5134 4.58157 22.4131 3.97988C22.3129 3.17762 22.0621 2.57592 21.661 2.17479ZM14.5159 9.24471L9.77754 11.7267C9.67726 11.7768 9.55191 11.8019 9.40148 11.8019C9.25106 11.8019 9.12571 11.7768 9.02542 11.7267C8.82486 11.5763 8.72458 11.3506 8.72458 11.0498V6.16102C8.72458 5.86017 8.83739 5.64707 9.06303 5.52172C9.28866 5.39637 9.52684 5.38383 9.77754 5.48411L14.5159 7.9661C14.7666 8.11653 14.8919 8.32963 14.8919 8.60541C14.8919 8.88118 14.7666 9.09428 14.5159 9.24471Z" fill="url(#paint0_linear_264_54)"/>
<defs>
<linearGradient id="paint0_linear_264_54" x1="28.0847" y1="12.9995" x2="12.4915" y2="-2.84059" gradientUnits="userSpaceOnUse">
<stop stop-color="#00FFFF"/>
<stop offset="0.14" stop-color="#00FAFF"/>
<stop offset="0.31" stop-color="#00ECFF"/>
<stop offset="0.48" stop-color="#00D5FF"/>
<stop offset="0.66" stop-color="#00B6FF"/>
<stop offset="0.84" stop-color="#008DFF"/>
<stop offset="1" stop-color="#0065FF"/>
</linearGradient>
</defs>
</svg>
